<?xml version="1.0" encoding="utf-8"?>
<!-- Generator: Adobe Illustrator 25.2.3, SVG Export Plug-In . SVG Version: 6.00 Build 0)  -->
<svg version="1.1" id="Ebene_1" xmlns="http://www.w3.org/2000/svg" xmlns:xlink="http://www.w3.org/1999/xlink" x="0px" y="0px"
	 viewBox="0 0 13.7 11.1" style="enable-background:new 0 0 13.7 11.1;" xml:space="preserve">
<style type="text/css">
	.st0{fill:#FFFFFF;}
</style>
<g>
	<path class="st0" d="M0,9.9C1.5,10,2.9,9.7,4.1,8.7C2.8,8.6,2,8,1.5,6.8c0.4,0,0.8,0.1,1.2-0.1c-0.7-0.2-1.2-0.5-1.6-1
		C0.7,5.2,0.5,4.6,0.5,3.9c0.4,0.2,0.8,0.3,1.2,0.3C0.5,3.2,0.2,2,0.9,0.5c1.5,1.8,3.5,2.8,5.8,3c0-0.3,0-0.5,0-0.8
		c0-1.2,0.9-2.3,2-2.5c1-0.3,1.9,0,2.7,0.7c0.1,0.1,0.1,0.1,0.2,0.1c0.6-0.1,1.1-0.3,1.7-0.7c-0.2,0.7-0.6,1.1-1.2,1.5
		c0.5,0,1-0.2,1.5-0.4c-0.4,0.5-0.8,1-1.2,1.3c-0.1,0.1-0.2,0.2-0.2,0.3c0,1.3-0.3,2.5-0.8,3.7c-0.7,1.4-1.6,2.5-3,3.3
		c-0.9,0.6-2,0.9-3.1,1.1c-1,0.1-1.9,0.1-2.9-0.1C1.7,10.8,0.8,10.4,0,9.9C0.1,9.9,0,9.9,0,9.9z"/>
</g>
</svg>
