<?xml version="1.0" encoding="utf-8"?>
<!-- Generator: Adobe Illustrator 25.2.3, SVG Export Plug-In . SVG Version: 6.00 Build 0)  -->
<svg version="1.1" id="Ebene_1" xmlns="http://www.w3.org/2000/svg" xmlns:xlink="http://www.w3.org/1999/xlink" x="0px" y="0px"
	 viewBox="0 0 1840.4 503.4" style="enable-background:new 0 0 1840.4 503.4;" xml:space="preserve">
<style type="text/css">
	.st0{opacity:0.28;}
	.st1{fill:#231F20;}
</style>
<g class="st0">
	<g>
		<polygon class="st1" points="1817.9,128.9 1823.9,180 1818.9,184.3 1804.8,158.6 1797.2,146.8 		"/>
		<polygon class="st1" points="1778.7,158.6 1780.6,175.6 1778,177.9 1769.6,165.4 		"/>
		<path class="st1" d="M1812.9,155.6l-4-4.6l10.4-9.6c0.6-0.5,1.5-0.7,2.3-0.6l0,0c1.7,0.4,3,1.9,3.2,3.6l0,0
			c0.1,0.8-0.2,1.6-0.9,2.2L1812.9,155.6z"/>
		<path class="st1" d="M1814.9,172.1l-4-4.6l10.4-9.6c0.6-0.5,1.5-0.7,2.3-0.6l0,0c1.7,0.4,3,1.9,3.2,3.6l0,0
			c0.1,0.8-0.2,1.6-0.9,2.2L1814.9,172.1z"/>
		<polygon class="st1" points="1811.5,121.6 1761.9,108.7 1756.9,113.1 1780.3,130.4 1790.9,139.5 		"/>
		<path class="st1" d="M1839.9,103.3c-5.1-5.9-40.7,25.7-61.9,47.1c-9.1,9.2-11.4,15.4-10.8,16.1c0.6,0.7,7-0.7,17.4-8.4
			C1808.8,140.1,1845,109.2,1839.9,103.3z"/>
		<polygon class="st1" points="1776.7,156.2 1760.1,151.9 1757.4,154.2 1768.6,164.3 		"/>
		<path class="st1" d="M1784.6,122.5l4,4.6l10.9-8.9c0.6-0.5,0.9-1.3,0.9-2.2l0,0c-0.2-1.8-1.4-3.2-3.2-3.6l0,0
			c-0.8-0.2-1.6,0-2.3,0.6L1784.6,122.5z"/>
		<path class="st1" d="M1768.3,118.5l4,4.6l10.9-8.9c0.6-0.5,0.9-1.3,0.9-2.2l0,0c-0.2-1.8-1.4-3.2-3.2-3.6l0,0
			c-0.8-0.2-1.6,0-2.3,0.6L1768.3,118.5z"/>
	</g>
	<g>
		<path class="st1" d="M16.9,332.4c-7.9,0-14.3,6.4-14.3,14.3c0,3.5,2.3,8.8,6.8,15.7c3.3,5,6.6,9.1,6.7,9.1
			c0.2,0.3,0.5,0.4,0.9,0.4c0,0,0,0,0,0c0.3,0,0.7-0.2,0.9-0.4c0,0,3.4-4.1,6.7-9.2c4.5-6.9,6.8-12.1,6.8-15.6
			C31.3,338.9,24.8,332.4,16.9,332.4z M16.9,354.4c-4.2,0-7.7-3.4-7.7-7.7c0-4.2,3.4-7.7,7.7-7.7c4.2,0,7.7,3.4,7.7,7.7
			C24.6,350.9,21.2,354.4,16.9,354.4z"/>
		<g>
			<path class="st1" d="M16.9,380.4c-4.4,0-8.5-0.6-11.6-1.8C0.9,377,0,375,0,373.5c0-2.8,3.1-5.1,8.6-6.2c0.6-0.1,1.2,0.3,1.4,0.9
				c0.1,0.6-0.3,1.2-0.9,1.4c-5,1-6.8,2.8-6.8,4c0,0.8,1,2,3.9,3c2.9,1.1,6.7,1.6,10.8,1.6s7.9-0.6,10.8-1.6c2.9-1.1,3.9-2.3,3.9-3
				c0-0.9-0.8-1.6-1.4-2.1c-1.2-0.8-3-1.5-5.2-1.9c-0.6-0.1-1-0.7-0.9-1.3c0.1-0.6,0.7-1,1.3-0.9c2.6,0.5,4.6,1.3,6.1,2.3
				c2,1.4,2.4,2.9,2.4,4c0,1.5-0.9,3.5-5.4,5.2C25.4,379.8,21.3,380.4,16.9,380.4z"/>
		</g>
	</g>
	<g>
		<path class="st1" d="M973.8,503.4c-5.1,0-10.1-0.1-15-0.2l0.2-7c4.8,0.2,9.8,0.2,14.8,0.2c2.7,0,5.5,0,8.3-0.1l0.1,7
			C979.4,503.4,976.5,503.4,973.8,503.4z M1005.6,502.5l-0.4-7c4-0.2,8.1-0.5,12.2-0.8c3.7-0.3,7.3-0.6,11-0.9l0.6,7
			c-3.7,0.3-7.4,0.6-11,0.9C1013.8,502,1009.6,502.3,1005.6,502.5z M935.3,501.8c-8-0.7-15.8-1.6-23.3-2.8l1.1-6.9
			c7.4,1.1,15.1,2,22.9,2.7L935.3,501.8z M1052.2,498.6l-0.7-7c7.8-0.8,15.5-1.6,23.1-2.4l0.8,6.9
			C1067.8,497,1060,497.9,1052.2,498.6z M888.9,494.7c-7.8-1.8-15.5-3.9-22.7-6.3l2.2-6.6c7,2.3,14.5,4.4,22.1,6.1L888.9,494.7z
			 M1098.6,493.4l-0.9-6.9c7.7-1,15.4-2.1,23-3.2l1,6.9C1114.1,491.3,1106.4,492.4,1098.6,493.4z M1144.8,486.6l-1.1-6.9
			c7.6-1.3,15.3-2.6,22.9-4l1.3,6.9C1160.2,484,1152.5,485.3,1144.8,486.6z M844.1,479.8c-7.3-3.3-14.4-7-21-11l3.6-6
			c6.3,3.8,13.1,7.4,20.2,10.6L844.1,479.8z M1190.7,478.2l-1.4-6.8c7.6-1.5,15.2-3.2,22.7-4.8l1.5,6.8
			C1206,475,1198.3,476.7,1190.7,478.2z M1236.2,468.1l-1.7-6.8c7.5-1.8,15.1-3.8,22.5-5.7l1.8,6.8
			C1251.4,464.3,1243.8,466.2,1236.2,468.1z M697.6,457.7c-1.1,0-2.3,0-3.4,0l0-7c1.1,0,2.2,0,3.4,0c6.4,0,13-0.2,19.7-0.6l0.4,7
			C710.8,457.5,704.1,457.7,697.6,457.7z M670.7,457.1c-7.9-0.4-15.7-1-23.4-1.7l0.7-7c7.5,0.7,15.3,1.3,23.1,1.7L670.7,457.1z
			 M1281.4,456.1l-1.9-6.7c7.4-2.1,14.9-4.4,22.2-6.7l2.1,6.7C1296.3,451.7,1288.8,453.9,1281.4,456.1z M803.7,455.2
			c-3.7-3-7.4-6.2-10.8-9.6c-1.9,0.4-3.7,0.9-5.6,1.3l-1.5-6.8c0.5-0.1,0.9-0.2,1.4-0.3c-0.3-0.3-0.5-0.6-0.8-0.9l5.1-4.7
			c1.1,1.3,2.3,2.5,3.5,3.7c4.4-1.1,8.8-2.2,13.1-3.4l1.8,6.7c-3,0.8-6,1.6-9.1,2.4c2.3,2.1,4.7,4.2,7.1,6.1L803.7,455.2z
			 M741.1,455l-0.8-6.9c7.5-0.9,15.2-2,22.9-3.4l1.2,6.9C756.5,452.9,748.7,454.1,741.1,455z M624,452.4c-7.8-1.2-15.6-2.6-23.1-4.1
			l1.4-6.8c7.4,1.5,15.1,2.9,22.7,4.1L624,452.4z M578.1,442.8c-7.6-2.1-15.2-4.4-22.5-6.8l2.2-6.6c7.2,2.4,14.6,4.7,22.1,6.7
			L578.1,442.8z M1326,442.2l-2.2-6.6c7.3-2.4,14.7-5,21.9-7.6l2.4,6.6C1340.7,437.2,1333.3,439.8,1326,442.2z M832.6,434.6
			l-2.1-6.7c7.3-2.3,14.7-4.9,21.9-7.6l2.4,6.6C847.4,429.7,839.9,432.2,832.6,434.6z M533.6,427.7c-7.3-3-14.5-6.3-21.4-9.8
			l3.1-6.3c6.8,3.4,13.8,6.6,21,9.6L533.6,427.7z M1369.9,426.4l-2.5-6.5c7.2-2.8,14.4-5.6,21.6-8.5l2.6,6.5
			C1384.5,420.8,1377.2,423.7,1369.9,426.4z M771.7,420.3c-4.4-6.5-8.3-13.4-11.8-20.6l6.3-3c3.3,6.9,7.1,13.5,11.3,19.8
			L771.7,420.3z M876.5,418.4l-2.7-6.4c7.1-3,14.2-6.1,21.2-9.4l3,6.3C890.9,412.2,883.7,415.4,876.5,418.4z M1413.2,408.8l-2.8-6.4
			c7.1-3.1,14.2-6.2,21.2-9.4l2.9,6.4C1427.5,402.5,1420.3,405.7,1413.2,408.8z M491.5,406.7c-6.8-4-13.4-8.3-19.8-12.8l4-5.7
			c6.2,4.4,12.7,8.6,19.3,12.5L491.5,406.7z M919,398.5l-3.2-6.2c6.8-3.6,13.7-7.3,20.3-11.1l3.5,6.1
			C932.9,391.1,925.9,394.9,919,398.5z M1455.7,389.3l-3-6.3c6.9-3.3,13.9-6.8,20.8-10.3l3.2,6.2
			C1469.6,382.5,1462.6,386,1455.7,389.3z M453,379.6c-2.2-1.8-4.3-3.6-6.4-5.4c-4.3-3.8-7.9-6.9-11.3-9.8l4.5-5.3
			c3.4,2.9,7,6,11.4,9.8c2,1.8,4.2,3.6,6.3,5.3L453,379.6z M751.1,377.6c-2.4-7.3-4.4-15.1-5.9-22.9l6.9-1.3
			c1.5,7.6,3.4,15.1,5.7,22.1L751.1,377.6z M959.6,375.1l-3.8-5.9c6.5-4.2,13-8.5,19.2-12.9l4,5.7
			C972.8,366.5,966.2,370.9,959.6,375.1z M1497.3,368.1l-3.3-6.2c6.8-3.6,13.6-7.4,20.4-11.2l3.4,6.1
			C1511,360.7,1504.1,364.5,1497.3,368.1z M417.4,349.6c-6.4-5.1-12.4-9.7-18.4-14l4.1-5.7c6.1,4.4,12.2,9,18.7,14.2L417.4,349.6z
			 M56.8,348.6l-4.1-5.7c0.3-0.2,7.4-5.4,19.8-12.9l3.6,6C64,343.3,56.8,348.5,56.8,348.6z M1538,345.3l-3.5-6
			c6.6-3.9,13.3-7.9,19.9-11.9l3.6,6C1551.4,337.4,1544.7,341.4,1538,345.3z M740.9,308.4l0-0.8l7,0l0,0.7c0,7.5,0.3,15,1,22.2
			l-7,0.6 M96.2,324.5l-3.3-6.2c6.9-3.7,14-7.3,21-10.6l3,6.3C110,317.4,103.1,320.9,96.2,324.5z M379.9,322.7
			c-6.6-4.2-13.3-8-19.9-11.5l3.3-6.2c6.7,3.6,13.6,7.5,20.4,11.8L379.9,322.7z M1577.8,320.9l-3.8-5.9c6.5-4.1,13-8.4,19.5-12.7
			l3.9,5.8C1590.9,312.5,1584.3,316.8,1577.8,320.9z M138.1,304.8l-2.6-6.5c7.4-3,14.8-5.7,22.1-8.2l2.2,6.6
			C152.6,299.2,145.3,301.9,138.1,304.8z M339.3,301.3c-7.1-3-14.3-5.7-21.5-7.9l2.1-6.7c7.4,2.3,14.9,5.1,22.1,8.2L339.3,301.3z
			 M1616.8,295.2l-4-5.8c6.3-4.3,12.7-8.8,19-13.3l4.1,5.7C1629.5,286.3,1623.1,290.8,1616.8,295.2z M181.8,290.3l-1.7-6.8
			c7.8-2,15.5-3.7,23-5l1.2,6.9C197,286.7,189.4,288.3,181.8,290.3z M295.5,287.5c-7.4-1.6-15-2.8-22.6-3.7l0.8-6.9
			c7.8,0.9,15.7,2.2,23.3,3.8L295.5,287.5z M227.1,282.6l-0.5-7c5.4-0.4,10.8-0.6,16-0.6c2.5,0,5.1,0,7.6,0.1l-0.2,7
			c-2.5-0.1-5-0.1-7.5-0.1C237.5,282,232.3,282.2,227.1,282.6z M1654.8,268.1l-4.1-5.6c6.2-4.5,12.4-9.2,18.6-13.9l4.2,5.6
			C1667.3,258.8,1661,263.5,1654.8,268.1z M1691.9,239.8l-4.3-5.5c6-4.7,12.1-9.6,18.2-14.5l4.4,5.4
			C1704.1,230.1,1698,235,1691.9,239.8z M1728.2,210.4l-4.5-5.4c5.9-4.9,11.9-10,17.8-15l4.5,5.3
			C1740.1,200.4,1734.1,205.5,1728.2,210.4z M1112.4,201.7l-6.6-2.2c2.4-7.3,4.3-14.7,5.9-22.1l6.8,1.4
			C1116.9,186.5,1114.8,194.2,1112.4,201.7z M770.1,195.4l-6.5-2.6c2.9-7.2,6.1-14.4,9.6-21.5l6.3,3.1
			C776.1,181.3,772.9,188.4,770.1,195.4z M1121.8,155.4l-7-0.6c0.4-5.3,0.7-10.6,0.7-15.8c0-2.3,0-4.7-0.1-7l7-0.3
			c0.1,2.4,0.1,4.9,0.1,7.3C1122.5,144.4,1122.3,149.9,1121.8,155.4z M790.5,154.1l-6-3.5c3.9-6.7,8.2-13.4,12.6-19.9l5.8,4
			C798.5,141,794.3,147.6,790.5,154.1z M816.5,116.1l-5.5-4.3c4.8-6.1,10-12.2,15.2-18l5.2,4.7C826.3,104.2,821.3,110.1,816.5,116.1
			z M1113,109.2c-1.3-7.6-3.1-15-5.4-22.1l6.7-2.1c2.4,7.4,4.2,15.2,5.6,23.1L1113,109.2z M847.5,82l-4.8-5
			c5.7-5.5,11.6-10.7,17.5-15.7l4.5,5.4C858.8,71.4,853,76.6,847.5,82z M1099.1,66.1c-3.5-6.9-7.5-13.4-11.9-19.2l5.6-4.2
			c4.7,6.2,8.9,13,12.6,20.3L1099.1,66.1z M882.8,52.5l-4.1-5.7c6.4-4.6,13.1-9,19.7-13l3.6,6C895.6,43.7,889.1,48,882.8,52.5z
			 M1071.9,30.3c-5.7-5-11.9-9.3-18.5-12.7l3.3-6.2c7,3.7,13.7,8.3,19.8,13.6L1071.9,30.3z M922.2,28.8l-3.1-6.3
			c7.2-3.5,14.5-6.7,21.7-9.4l2.5,6.5C936.3,22.3,929.2,25.4,922.2,28.8z M965.1,12.8L963.4,6c7.8-2,15.6-3.5,23.3-4.5l0.9,6.9
			C980.2,9.4,972.6,10.9,965.1,12.8z M1032.5,9.7c-7.1-1.7-14.6-2.6-22.2-2.7l0-7c8.2,0,16.2,1,23.9,2.9L1032.5,9.7z"/>
	</g>
</g>
</svg>
