<?xml version="1.0" encoding="utf-8"?>
<!-- Generator: Adobe Illustrator 25.2.3, SVG Export Plug-In . SVG Version: 6.00 Build 0)  -->
<svg version="1.1" id="Ebene_1" xmlns="http://www.w3.org/2000/svg" xmlns:xlink="http://www.w3.org/1999/xlink" x="0px" y="0px"
	 viewBox="0 0 125 125" style="enable-background:new 0 0 125 125;" xml:space="preserve">
<style type="text/css">
	.st0{fill:#78B7E5;}
	.st1{fill:#5E9AD3;}
	.st2{fill:#F9B233;}
	.st3{fill:#565066;}
	.st4{fill:#FFFFFF;}
</style>
<g id="mountain_range">
	<circle class="st0" cx="62.5" cy="62.5" r="62.5"/>
	<path class="st1" d="M55,124.5c2.5,0.3,5,0.5,7.5,0.5c31.8,0,58-23.7,62-54.4l-36-36l-0.4,3.1L72.3,21.8l-15,31L37.4,33.1
		L10.4,79.9L55,124.5z"/>
	<circle class="st2" cx="57.9" cy="38.5" r="10"/>
	<polygon class="st3" points="114.6,79.9 88.5,34.6 84,42.2 72.3,21.8 51.6,57.6 37.4,33.1 10.4,79.9 	"/>
	<polygon class="st4" points="84,42.2 79.1,50.8 84.1,55.8 92.4,47.5 95.2,50.3 96.7,48.8 88.5,34.6 84,42.2 	"/>
	<polygon class="st4" points="37.7,48.1 39.4,48.6 44,44.4 37.4,33.1 29.9,46.2 34.2,51.7 	"/>
	<polygon class="st4" points="69.4,35.9 71.9,33.1 76.7,39.2 80.2,35.6 72.3,21.8 66.1,32.6 	"/>
</g>
</svg>
