<?xml version="1.0" encoding="utf-8"?>
<!-- Generator: Adobe Illustrator 25.2.3, SVG Export Plug-In . SVG Version: 6.00 Build 0)  -->
<svg version="1.1" id="Ebene_1" xmlns="http://www.w3.org/2000/svg" xmlns:xlink="http://www.w3.org/1999/xlink" x="0px" y="0px"
	 viewBox="0 0 16.7 15.6" style="enable-background:new 0 0 16.7 15.6;" xml:space="preserve">
<style type="text/css">
	.st0{fill:none;stroke:#808080;stroke-miterlimit:10;}
</style>
<g id="Calendar">
	<line class="st0" x1="13.9" y1="5.1" x2="16.2" y2="5.1"/>
	<line class="st0" x1="0.5" y1="5.1" x2="11.9" y2="5.1"/>
	<path class="st0" d="M4,3.2L4,3.2c-0.4,0-0.8-0.4-0.8-0.8V1.3c0-0.4,0.4-0.8,0.8-0.8l0,0c0.4,0,0.8,0.4,0.8,0.8v1.1
		C4.8,2.8,4.5,3.2,4,3.2z"/>
	<path class="st0" d="M12.7,3.2L12.7,3.2c-0.4,0-0.8-0.4-0.8-0.8V1.3c0-0.4,0.4-0.8,0.8-0.8l0,0c0.4,0,0.8,0.4,0.8,0.8v1.1
		C13.5,2.8,13.2,3.2,12.7,3.2z"/>
	<path class="st0" d="M13.5,1.6h1.6c0.6,0,1.1,0.5,1.1,1.1v11.4c0,0.6-0.5,1.1-1.1,1.1H1.6c-0.6,0-1.1-0.5-1.1-1.1V2.7
		c0-0.6,0.5-1.1,1.1-1.1h1.6"/>
	<line class="st0" x1="4.8" y1="1.6" x2="11.9" y2="1.6"/>
	<line class="st0" x1="7.7" y1="11.9" x2="9" y2="11.9"/>
	<line class="st0" x1="3.5" y1="11.9" x2="4.8" y2="11.9"/>
	<line class="st0" x1="12.2" y1="11.9" x2="13.5" y2="11.9"/>
	<line class="st0" x1="7.7" y1="8.1" x2="9" y2="8.1"/>
	<line class="st0" x1="3.5" y1="8.1" x2="4.8" y2="8.1"/>
	<line class="st0" x1="12.2" y1="8.1" x2="13.5" y2="8.1"/>
</g>
</svg>
