<?xml version="1.0" encoding="utf-8"?>
<!-- Generator: Adobe Illustrator 25.2.3, SVG Export Plug-In . SVG Version: 6.00 Build 0)  -->
<svg version="1.1" id="Ebene_1" xmlns="http://www.w3.org/2000/svg" xmlns:xlink="http://www.w3.org/1999/xlink" x="0px" y="0px"
	 viewBox="0 0 15.5 15" style="enable-background:new 0 0 15.5 15;" xml:space="preserve">
<style type="text/css">
	.st0{fill:none;stroke:#808080;stroke-miterlimit:10;}
	.st1{fill:none;stroke:#808080;stroke-width:0.25;stroke-miterlimit:10;}
</style>
<g id="E-Mail_1_">
	<g>
		<polyline class="st0" points="2.5,7.8 2.5,0.5 13,0.5 13,6.8 		"/>
		<path class="st0" d="M13,4.8l1.8,1.5C14.9,6.4,15,6.6,15,6.7V14c0,0.3-0.2,0.5-0.5,0.5H1c-0.3,0-0.5-0.2-0.5-0.5V6.7
			c0-0.1,0.1-0.3,0.2-0.4l1.8-1.5"/>
		<path class="st0" d="M2,13l5.4-4.4c0.2-0.1,0.4-0.1,0.6,0l5.4,4.4"/>
		<line class="st0" x1="9.3" y1="9.6" x2="15" y2="6.7"/>
		<line class="st0" x1="0.5" y1="6.7" x2="6.1" y2="9.6"/>
	</g>
	<g>
		<path class="st1" d="M9.2,2.3c0.4,0.2,0.8,0.5,1,0.9c0.2,0.4,0.4,0.9,0.4,1.4c0,0.5-0.1,0.9-0.3,1.2c-0.2,0.3-0.5,0.4-0.8,0.4
			c-0.2,0-0.4,0-0.5-0.1C8.9,6.1,8.8,5.9,8.8,5.7C8.7,5.9,8.5,6.1,8.3,6.2C8.1,6.3,7.9,6.3,7.6,6.3c-0.3,0-0.5-0.1-0.8-0.2
			C6.6,6,6.4,5.8,6.3,5.5C6.2,5.3,6.1,5,6.1,4.7c0-0.3,0.1-0.6,0.2-0.8c0.1-0.2,0.3-0.4,0.5-0.5c0.2-0.1,0.5-0.2,0.8-0.2
			c0.2,0,0.5,0,0.6,0.1c0.2,0.1,0.4,0.2,0.5,0.4V3.2h0.5v2.2c0,0.1,0,0.3,0.1,0.3c0.1,0.1,0.1,0.1,0.3,0.1c0.2,0,0.3-0.1,0.4-0.3
			c0.1-0.2,0.1-0.5,0.1-0.9c0-0.4-0.1-0.8-0.3-1.2C9.7,3.1,9.4,2.9,9,2.7C8.7,2.5,8.2,2.4,7.8,2.4c-0.5,0-0.9,0.1-1.3,0.3
			C6.1,2.9,5.8,3.2,5.6,3.5C5.4,3.9,5.3,4.3,5.3,4.7c0,0.5,0.1,0.9,0.3,1.2c0.2,0.4,0.5,0.6,0.9,0.8C6.8,7,7.3,7.1,7.7,7.1
			c0.2,0,0.4,0,0.6-0.1c0.2,0,0.4-0.1,0.6-0.2L9,7.2C8.9,7.3,8.7,7.4,8.4,7.4C8.2,7.5,8,7.5,7.7,7.5c-0.6,0-1.1-0.1-1.5-0.4
			c-0.4-0.2-0.8-0.6-1-1C5,5.7,4.9,5.3,4.9,4.7c0-0.5,0.1-1,0.4-1.4c0.2-0.4,0.6-0.7,1-1C6.7,2.1,7.2,2,7.8,2C8.3,2,8.8,2.1,9.2,2.3
			z M8.2,5.7c0.2-0.1,0.3-0.2,0.4-0.4C8.7,5.2,8.7,5,8.7,4.7c0-0.2,0-0.4-0.1-0.6C8.5,4,8.4,3.9,8.2,3.8C8.1,3.7,7.9,3.7,7.7,3.7
			C7.4,3.7,7.1,3.8,7,4C6.8,4.2,6.7,4.4,6.7,4.7c0,0.3,0.1,0.6,0.3,0.8c0.2,0.2,0.4,0.3,0.7,0.3C7.9,5.8,8.1,5.8,8.2,5.7z"/>
	</g>
</g>
</svg>
