<?xml version="1.0" encoding="utf-8"?>
<!-- Generator: Adobe Illustrator 25.2.3, SVG Export Plug-In . SVG Version: 6.00 Build 0)  -->
<svg version="1.1" id="Ebene_1" xmlns="http://www.w3.org/2000/svg" xmlns:xlink="http://www.w3.org/1999/xlink" x="0px" y="0px"
	 viewBox="0 0 18.9 12.8" style="enable-background:new 0 0 18.9 12.8;" xml:space="preserve">
<style type="text/css">
	.st0{fill:#808080;}
</style>
<path class="st0" d="M18.3,0H0.6C0.3,0,0,0.3,0,0.6v11.6c0,0.3,0.3,0.6,0.6,0.6h17.7c0.3,0,0.6-0.3,0.6-0.6V0.6
	C18.9,0.3,18.6,0,18.3,0z M17.9,1.7v9.4l-4.7-4.7L17.9,1.7z M9.3,8.6L1.7,1h15.5L9.6,8.6C9.5,8.7,9.4,8.7,9.3,8.6z M6.4,7.1l2.7,2.7
	c0.1,0.1,0.2,0.1,0.3,0.1c0.1,0,0.3-0.1,0.3-0.1l2.7-2.7l4.7,4.7H1.7L6.4,7.1z M5.7,6.4L1,11.1V1.7L5.7,6.4z"/>
</svg>
