<?xml version="1.0" encoding="utf-8"?>
<!-- Generator: Adobe Illustrator 25.2.3, SVG Export Plug-In . SVG Version: 6.00 Build 0)  -->
<svg version="1.1" id="Ebene_1" xmlns="http://www.w3.org/2000/svg" xmlns:xlink="http://www.w3.org/1999/xlink" x="0px" y="0px"
	 viewBox="0 0 20.2 20.2" style="enable-background:new 0 0 20.2 20.2;" xml:space="preserve">
<style type="text/css">
	.st0{fill:none;stroke:#808080;stroke-width:0.75;stroke-miterlimit:10;}
</style>
<g id="All_Day">
	<g id="All_Day_1_">
		<path class="st0" d="M19.9,10.1c0-5.4-4.4-9.7-9.7-9.7c-5.4,0-9.7,4.4-9.7,9.7s4.4,9.7,9.7,9.7"/>
		<line class="st0" x1="11.8" y1="10.1" x2="6.4" y2="10.1"/>
		<line class="st0" x1="10.1" y1="11.8" x2="10.1" y2="4.4"/>
		<g>
			<path class="st0" d="M15.3,17.6v0.6H12v-0.5l1.9-1.8c0.2-0.2,0.4-0.4,0.5-0.6c0.1-0.2,0.1-0.3,0.1-0.5c0-0.2-0.1-0.4-0.3-0.6
				c-0.2-0.1-0.4-0.2-0.7-0.2c-0.5,0-0.9,0.2-1.2,0.5l-0.5-0.4c0.2-0.2,0.4-0.4,0.7-0.5c0.3-0.1,0.6-0.2,1-0.2
				c0.5,0,0.9,0.1,1.2,0.3c0.3,0.2,0.4,0.5,0.4,0.9c0,0.2-0.1,0.5-0.2,0.7c-0.1,0.2-0.3,0.5-0.6,0.8l-1.4,1.4H15.3z"/>
			<path class="st0" d="M19.9,17H19v1.1h-0.7V17h-2.6v-0.5l2.4-3h0.7l-2.3,2.9h1.8v-1H19v1h0.9V17z"/>
		</g>
	</g>
	<path class="st0" d="M17.7,10.1c0-4.2-3.4-7.6-7.6-7.6c-4.2,0-7.6,3.4-7.6,7.6s3.4,7.6,7.6,7.6"/>
</g>
</svg>
