<?xml version="1.0" encoding="utf-8"?>
<!-- Generator: Adobe Illustrator 25.2.3, SVG Export Plug-In . SVG Version: 6.00 Build 0)  -->
<svg version="1.1" id="Ebene_1" xmlns="http://www.w3.org/2000/svg" xmlns:xlink="http://www.w3.org/1999/xlink" x="0px" y="0px"
	 viewBox="0 0 42.8 30" style="enable-background:new 0 0 42.8 30;" xml:space="preserve">
<style type="text/css">
	.st0{fill:#E20613;}
</style>
<g>
	<path class="st0" d="M42.6,6.2c-1-3.6-4.3-6.3-8.3-6.2c-3.7,0-7.3,0-11,0c-5,0-10.1,0-15.1,0C3.7,0.1,0,3.8,0,8.3c0,4.5,0,9,0,13.4
		c0,0.7,0.1,1.4,0.3,2.1c1,3.8,4.3,6.2,8.3,6.2c3.8,0,7.6,0,11.4,0c4.9,0,9.8,0,14.6,0c3.7,0,6.9-2.6,7.9-6.1
		c0.1-0.4,0.1-0.8,0.3-1.2c0-5,0-10.1,0-15.1C42.7,7.1,42.7,6.7,42.6,6.2z M40.3,21.6c0,3.2-2.6,5.9-5.8,5.9c-4.6,0-9.3,0-13.9,0
		c-4,0-8,0-12,0c-3,0-5.3-1.9-5.9-4.7c-0.1-0.4-0.1-0.8-0.1-1.2c0-4.4,0-8.8,0-13.1c0-3.3,2.6-5.9,5.8-5.9c4.4,0,8.7,0,13.1,0
		c0,0,0,0,0,0c4.3,0,8.5,0,12.8,0c2.9,0,5.1,1.7,5.9,4.4c0.1,0.5,0.2,1,0.2,1.5C40.3,12.8,40.3,17.2,40.3,21.6z"/>
	<path class="st0" d="M28.9,13.9c-0.1-0.1-0.2-0.1-0.2-0.2c-3.5-2.2-7-4.4-10.5-6.6c-0.5-0.3-1-0.5-1.5-0.2C16.1,7.3,16,7.8,16,8.3
		c0,2.2,0,4.4,0,6.6c0,2.2,0,4.4,0,6.6c0,0.6,0.1,1.1,0.7,1.3c0.5,0.3,1,0.1,1.5-0.1c2-1.2,4-2.5,6-3.7c1.6-1,3.1-1.9,4.7-2.9
		C29.8,15.6,29.8,14.5,28.9,13.9z M18.5,19.5c0-3.1,0-6.1,0-9.2c2.5,1.6,4.9,3.1,7.4,4.7C23.5,16.5,21,18,18.5,19.5z"/>
</g>
</svg>
