<?xml version="1.0" encoding="utf-8"?>
<!-- Generator: Adobe Illustrator 25.2.3, SVG Export Plug-In . SVG Version: 6.00 Build 0)  -->
<svg version="1.1" id="Ebene_1" xmlns="http://www.w3.org/2000/svg" xmlns:xlink="http://www.w3.org/1999/xlink" x="0px" y="0px"
	 viewBox="0 0 10.7 14.6" style="enable-background:new 0 0 10.7 14.6;" xml:space="preserve">
<style type="text/css">
	.st0{fill:#E20613;stroke:#E20613;stroke-miterlimit:10;}
</style>
<g>
	<path class="st0" d="M10.2,5.3C9.9,6.1,9.8,7,9.3,7.7c-1.1,2-2.4,4-3.6,5.9c-0.4,0.6-0.6,0.6-0.9,0c-1.2-2-2.5-4-3.7-6.1
		c-1.3-2.2-0.5-5,1.6-6.3c2.1-1.3,4.9-0.8,6.4,1.2C9.7,3.2,10,4.2,10.2,5.3z M5.2,13.1C5.3,13,5.4,13,5.4,12.9C6.6,11,7.9,9,9,7
		c0.9-1.6,0.3-3.7-1.1-4.9c-1.6-1.3-3.7-1.3-5.3,0c-1.5,1.2-2,3.4-1,5.1c1.1,1.9,2.3,3.8,3.4,5.7C5.1,13,5.2,13,5.2,13.1z"/>
	<path class="st0" d="M7.3,5.3c0,1.1-0.9,2-2,2c-1.1,0-2-0.9-2-2c0-1.1,0.9-2,2-2.1C6.4,3.2,7.3,4.1,7.3,5.3z M5.3,3.9
		c-0.8,0-1.4,0.6-1.4,1.4c0,0.8,0.7,1.4,1.4,1.4c0.8,0,1.3-0.6,1.3-1.4C6.6,4.5,6.1,3.9,5.3,3.9z"/>
</g>
</svg>
