<?xml version="1.0" encoding="utf-8"?>
<!-- Generator: Adobe Illustrator 25.2.3, SVG Export Plug-In . SVG Version: 6.00 Build 0)  -->
<svg version="1.1" id="Ebene_1" xmlns="http://www.w3.org/2000/svg" xmlns:xlink="http://www.w3.org/1999/xlink" x="0px" y="0px"
	 viewBox="0 0 9.9 12.2" style="enable-background:new 0 0 9.9 12.2;" xml:space="preserve">
<style type="text/css">
	.st0{fill:#FFFFFF;}
</style>
<g>
	<path class="st0" d="M2.3,12.2c-0.1-0.1-0.1-0.2-0.1-0.4c-0.1-0.7-0.1-1.4-0.1-2c0-0.4,0.2-0.8,0.3-1.1c0.2-0.9,0.5-1.9,0.7-2.8
		c0-0.1,0-0.1,0-0.2c-0.3-0.7-0.3-1.3,0-2c0.2-0.4,0.5-0.7,1-0.8c0.6-0.1,1.1,0.2,1.2,0.9c0,0.3-0.1,0.7-0.2,1
		c-0.1,0.5-0.3,1-0.5,1.5C4.3,7.2,5.1,7.8,5.8,7.7c0.8-0.1,1.4-0.5,1.8-1.2C8,5.9,8.1,5.3,8.2,4.6c0-0.5,0-0.9-0.2-1.4
		C7.7,2.5,7.2,1.9,6.5,1.6C5.4,1.1,4.3,1.2,3.2,1.7C2.2,2.2,1.6,3,1.5,4.1C1.3,4.9,1.5,5.6,2,6.2C2.1,6.3,2.1,6.4,2,6.5
		C2,6.7,1.9,7,1.8,7.2c0,0.2-0.1,0.2-0.3,0.1C1.2,7.2,1,7,0.8,6.7C0.2,6,0,5.1,0,4.2c0.1-0.9,0.4-1.8,1-2.5c0.5-0.6,1.2-1.1,2-1.4
		C3.8,0,4.7-0.1,5.7,0c0.9,0.1,1.8,0.4,2.5,0.9c1,0.7,1.6,1.6,1.7,2.8c0.2,1.4-0.2,2.7-1.1,3.8C8.3,8.2,7.6,8.6,6.7,8.8
		C6.1,8.9,5.5,9,4.9,8.7C4.6,8.5,4.3,8.4,4.2,8.1c0,0,0,0,0,0C4,8.6,3.8,9.1,3.7,9.5c-0.2,0.7-0.5,1.3-0.8,1.8
		C2.7,11.7,2.5,12,2.3,12.2C2.3,12.2,2.3,12.2,2.3,12.2z"/>
</g>
</svg>
