<?xml version="1.0" encoding="utf-8"?>
<!-- Generator: Adobe Illustrator 25.2.3, SVG Export Plug-In . SVG Version: 6.00 Build 0)  -->
<svg version="1.1" id="Ebene_1" xmlns="http://www.w3.org/2000/svg" xmlns:xlink="http://www.w3.org/1999/xlink" x="0px" y="0px"
	 viewBox="0 0 10.5 13.9" style="enable-background:new 0 0 10.5 13.9;" xml:space="preserve">
<style type="text/css">
	.st0{fill:#E20613;stroke:#E20613;stroke-width:0.3479;stroke-miterlimit:10;}
</style>
<g>
	<path class="st0" d="M7.5,13.7c-1.1,0-2-0.5-2.8-1.1C2,10.5,0.4,7.7,0.2,4.3c0-0.6,0-1.1,0.1-1.7c0.3-1.3,1.4-2.3,2.7-2.5
		c0.3,0,0.7,0.2,0.9,0.4c0.4,0.6,0.8,1.2,1.1,1.8c0.3,0.5,0.2,1-0.3,1.2c-1,0.5-1,1.4-0.9,2.3c0.3,1.4,1,2.4,2.1,3.2
		c0.6,0.4,1.1,0.5,1.7,0.2C8.6,8.9,8.9,9,9.4,9.9c0.3,0.5,0.5,0.9,0.8,1.4c0.3,0.6,0.2,0.9-0.3,1.3C9.2,13.2,8.5,13.7,7.5,13.7z
		 M7.5,13.3c0.9-0.1,1.4-0.6,2-1c0.3-0.2,0.3-0.5,0.1-0.8c-0.3-0.4-0.5-0.9-0.8-1.4C8.7,9.6,8.4,9.5,7.9,9.8
		c-0.8,0.5-1.5,0.3-2.3-0.2C4.4,8.7,3.6,7.5,3.4,5.9c-0.2-1.1-0.1-2.1,1-2.7c0.3-0.2,0.3-0.5,0.1-0.8C4.2,2,3.9,1.5,3.7,1
		C3.5,0.7,3.2,0.6,2.9,0.7c-1.5,0.5-2.2,1.4-2.2,3c0.1,3.9,1.8,6.9,5.1,9C6.3,13,6.9,13.1,7.5,13.3z"/>
</g>
</svg>
