<?xml version="1.0" encoding="utf-8"?>
<!-- Generator: Adobe Illustrator 25.2.3, SVG Export Plug-In . SVG Version: 6.00 Build 0)  -->
<svg version="1.1" id="Ebene_1" xmlns="http://www.w3.org/2000/svg" xmlns:xlink="http://www.w3.org/1999/xlink" x="0px" y="0px"
	 viewBox="0 0 14.7 10.7" style="enable-background:new 0 0 14.7 10.7;" xml:space="preserve">
<style type="text/css">
	.st0{fill:#E20613;stroke:#E20613;stroke-miterlimit:10;}
</style>
<g>
	<path class="st0" d="M7.3,10.2c-1.9,0-3.7,0-5.6,0c-0.9,0-1.2-0.3-1.2-1.2c0-2.4,0-4.9,0-7.3c0-0.8,0.3-1.2,1.2-1.2
		c3.8,0,7.5,0,11.3,0c0.9,0,1.2,0.3,1.2,1.2c0,2.4,0,4.8,0,7.3c0,1-0.3,1.3-1.3,1.3C11,10.2,9.2,10.2,7.3,10.2z M7.3,9.8
		c1.8,0,3.7,0,5.5,0c0.7,0,0.8-0.1,0.8-0.8c0-2.4,0-4.8,0-7.2c0-0.7-0.1-0.8-0.8-0.8c-3.7,0-7.4,0-11.1,0c-0.7,0-0.8,0.1-0.8,0.9
		c0,2.4,0,4.8,0,7.2c0,0.7,0.1,0.8,0.8,0.8C3.6,9.8,5.5,9.8,7.3,9.8z"/>
	<path class="st0" d="M5,5.3c-1-1-1.9-1.9-2.9-2.8C2,2.4,1.9,2.2,1.8,2.1c0-0.1,0-0.2,0-0.3c0,0,0.2,0,0.2,0C2.2,1.9,2.3,2,2.4,2.1
		C3.9,3.6,5.3,5,6.8,6.5c0.5,0.5,0.6,0.5,1.1,0c1.4-1.4,2.9-2.9,4.3-4.3C12.3,2.1,12.3,2,12.4,2c0.2-0.1,0.3-0.1,0.5-0.1
		c-0.1,0.2-0.1,0.4-0.2,0.5C11.8,3.2,10.9,4.1,10,5c-0.3,0.3-0.3,0.5,0,0.8c0.9,0.9,1.8,1.8,2.7,2.7c0.1,0.1,0.1,0.3,0.2,0.5
		c-0.2-0.1-0.4-0.1-0.5-0.2C11.4,7.8,10.5,6.9,9.6,6C9.4,5.8,9.2,5.7,8.9,6C8.7,6.3,8.4,6.6,8.1,6.9C7.6,7.4,7,7.4,6.5,6.9
		C6.2,6.5,5.8,6.1,5.3,5.6c-0.5,0.6-1,1.1-1.5,1.6c-0.5,0.5-1,1-1.5,1.5C2.2,8.9,2,8.9,1.8,8.9C1.9,8.8,1.9,8.6,2,8.4
		c0.9-0.9,1.8-1.9,2.8-2.8C4.8,5.6,4.9,5.5,5,5.3z"/>
</g>
</svg>
