<?xml version="1.0" encoding="utf-8"?>
<!-- Generator: Adobe Illustrator 25.2.3, SVG Export Plug-In . SVG Version: 6.00 Build 0)  -->
<svg version="1.1" id="Ebene_1" xmlns="http://www.w3.org/2000/svg" xmlns:xlink="http://www.w3.org/1999/xlink" x="0px" y="0px"
	 viewBox="0 0 18.7 13.7" style="enable-background:new 0 0 18.7 13.7;" xml:space="preserve">
<style type="text/css">
	.st0{fill:#FFFFFF;stroke:#FFFFFF;stroke-width:1.2728;stroke-miterlimit:10;}
</style>
<g>
	<path class="st0" d="M9.3,13c-2.4,0-4.7,0-7.1,0c-1.1,0-1.5-0.4-1.5-1.6c0-3.1,0-6.2,0-9.3c0-1.1,0.4-1.5,1.5-1.5
		c4.8,0,9.6,0,14.4,0c1.1,0,1.5,0.4,1.5,1.5c0,3.1,0,6.2,0,9.3c0,1.2-0.4,1.6-1.6,1.6C14,13,11.6,13,9.3,13z M9.3,12.5
		c2.3,0,4.7,0,7,0c0.9,0,1.1-0.1,1.1-1.1c0-3,0-6.1,0-9.1c0-0.9-0.2-1.1-1-1.1c-4.7,0-9.4,0-14.1,0c-0.9,0-1.1,0.2-1.1,1.1
		c0,3,0,6.1,0,9.1c0,0.9,0.2,1,1,1C4.6,12.5,7,12.5,9.3,12.5z"/>
	<path class="st0" d="M6.4,6.8C5.2,5.5,4,4.4,2.7,3.2C2.6,3,2.4,2.8,2.3,2.7c-0.1-0.1,0-0.3,0.1-0.4c0,0,0.2,0,0.3,0
		C2.8,2.4,3,2.6,3.1,2.7c1.8,1.8,3.7,3.7,5.5,5.5c0.6,0.6,0.8,0.6,1.4,0c1.8-1.8,3.7-3.7,5.5-5.5c0.1-0.1,0.1-0.2,0.2-0.2
		c0.2-0.1,0.4-0.1,0.6-0.2c-0.1,0.2-0.1,0.5-0.3,0.6c-1.1,1.1-2.2,2.3-3.4,3.4c-0.4,0.4-0.4,0.6,0,1c1.2,1.1,2.3,2.2,3.4,3.4
		c0.1,0.1,0.2,0.4,0.3,0.6c-0.2-0.1-0.5-0.1-0.7-0.2c-1.2-1.1-2.3-2.3-3.4-3.4c-0.3-0.3-0.6-0.4-0.9,0c-0.3,0.4-0.7,0.7-1.1,1.1
		c-0.7,0.6-1.3,0.6-2,0c-0.5-0.5-0.9-1-1.5-1.6c-0.7,0.7-1.3,1.4-1.9,2c-0.6,0.7-1.3,1.3-2,2c-0.1,0.1-0.4,0.1-0.6,0.2
		c0.1-0.2,0.1-0.5,0.2-0.6c1.2-1.2,2.3-2.4,3.5-3.5C6.2,7.1,6.2,7,6.4,6.8z"/>
</g>
</svg>
