<?xml version="1.0" encoding="utf-8"?>
<!-- Generator: Adobe Illustrator 25.2.3, SVG Export Plug-In . SVG Version: 6.00 Build 0)  -->
<svg version="1.1" id="Ebene_1" xmlns="http://www.w3.org/2000/svg" xmlns:xlink="http://www.w3.org/1999/xlink" x="0px" y="0px"
	 viewBox="0 0 10.7 13.2" style="enable-background:new 0 0 10.7 13.2;" xml:space="preserve">
<style type="text/css">
	.st0{fill:#FFFFFF;}
</style>
<g>
	<path class="st0" d="M2.4,13.2c-0.1-0.1-0.1-0.3-0.1-0.4c-0.1-0.7-0.2-1.5-0.1-2.2c0-0.4,0.2-0.8,0.3-1.2c0.3-1,0.5-2.1,0.8-3.1
		c0-0.1,0-0.1,0-0.2C3,5.4,3,4.7,3.3,4c0.2-0.5,0.6-0.8,1.1-0.9c0.7-0.1,1.2,0.3,1.3,1c0,0.4-0.1,0.7-0.2,1.1C5.3,5.7,5.2,6.2,5,6.8
		c-0.3,1,0.5,1.6,1.3,1.6c0.9-0.1,1.5-0.6,2-1.3c0.4-0.6,0.5-1.3,0.6-2c0-0.5,0-1-0.2-1.5C8.3,2.7,7.8,2.1,7,1.8
		C5.8,1.2,4.6,1.3,3.4,1.8C2.4,2.4,1.7,3.3,1.6,4.4C1.5,5.3,1.6,6,2.2,6.7C2.2,6.8,2.2,6.9,2.2,7C2.1,7.3,2.1,7.5,2,7.8
		C1.9,8,1.9,8,1.7,8C1.3,7.8,1,7.6,0.8,7.2C0.2,6.5-0.1,5.6,0,4.6c0.1-1,0.4-1.9,1-2.7c0.6-0.7,1.3-1.2,2.1-1.5C4.1,0,5.1-0.1,6.1,0
		c1,0.1,1.9,0.4,2.7,1c1,0.7,1.7,1.7,1.8,3c0.2,1.5-0.2,2.9-1.2,4.1C8.9,8.9,8.2,9.3,7.3,9.5c-0.7,0.2-1.4,0.2-2-0.1
		C5,9.2,4.7,9.1,4.5,8.8c0,0,0,0,0,0C4.3,9.3,4.1,9.8,4,10.3c-0.2,0.7-0.5,1.4-0.9,2C2.9,12.6,2.8,12.9,2.4,13.2
		C2.5,13.2,2.5,13.2,2.4,13.2z"/>
</g>
</svg>
