<?xml version="1.0" encoding="utf-8"?>
<!-- Generator: Adobe Illustrator 25.2.3, SVG Export Plug-In . SVG Version: 6.00 Build 0)  -->
<svg version="1.1" id="Ebene_1" xmlns="http://www.w3.org/2000/svg" xmlns:xlink="http://www.w3.org/1999/xlink" x="0px" y="0px"
	 viewBox="0 0 12 12" style="enable-background:new 0 0 12 12;" xml:space="preserve">
<style type="text/css">
	.st0{fill:#FFFFFF;}
</style>
<g>
	<path class="st0" d="M9.2,0C9.2,0,9.2,0,9.2,0C9.2,0,9.2,0,9.2,0z"/>
	<path class="st0" d="M11.9,2.3c-0.1-0.4-0.2-0.7-0.4-1c-0.4-0.5-0.8-0.9-1.4-1.1C9.8,0.1,9.6,0,9.3,0c0,0-0.1,0-0.1,0c0,0,0,0,0,0
		C7,0,5,0,2.9,0c0,0,0,0,0,0c0,0-0.1,0-0.1,0C2.6,0,2.4,0,2.3,0.1C1.7,0.2,1.2,0.5,0.8,0.9C0.3,1.5,0,2.1,0,2.9C0,5,0,7,0,9.1
		c0,0.2,0,0.4,0.1,0.5c0.1,0.6,0.4,1.1,0.9,1.5C1.5,11.7,2.1,12,2.9,12C5,12,7,12,9.1,12c0.2,0,0.4,0,0.5-0.1c0.4-0.1,0.7-0.2,1-0.4
		c0.5-0.4,0.9-0.8,1.1-1.4C11.9,9.8,12,9.6,12,9.3c0-2.2,0-4.4,0-6.6C12,2.6,12,2.5,11.9,2.3z M11,8.9c0,1-0.6,1.8-1.6,2
		c-0.2,0-0.3,0-0.5,0c-2,0-3.9,0-5.9,0c-0.9,0-1.7-0.5-2-1.4C1,9.4,1,9.2,1,8.9c0-1,0-2,0-2.9c0,0,0,0,0,0c0-1,0-2.1,0-3.1
		C1,2,1.8,1.1,2.7,1c0.1,0,0.3,0,0.4,0C5,1,7,1,8.9,1c0.9,0,1.5,0.4,1.9,1.2C10.9,2.4,11,2.7,11,3C11,5,11,7,11,8.9z"/>
	<path class="st0" d="M9.2,3.5c-0.4,0-0.7-0.3-0.7-0.8C8.5,2.3,8.8,2,9.2,2C9.7,2,10,2.3,10,2.7C10,3.1,9.7,3.5,9.2,3.5z"/>
	<path class="st0" d="M6,3C4.3,3,3,4.4,3,6c0,1.7,1.4,3,3,3c1.7,0,3-1.4,3-3C9,4.3,7.6,3,6,3z M6,8C4.9,8,4,7.1,4,6c0-1.1,0.9-2,2-2
		c1.1,0,2,0.9,2,2C8,7.1,7.1,8,6,8z"/>
</g>
</svg>
