<?xml version="1.0" encoding="utf-8"?>
<!-- Generator: Adobe Illustrator 25.2.3, SVG Export Plug-In . SVG Version: 6.00 Build 0)  -->
<svg version="1.1" id="Ebene_1" xmlns="http://www.w3.org/2000/svg" xmlns:xlink="http://www.w3.org/1999/xlink" x="0px" y="0px"
	 viewBox="0 0 374 45.8" style="enable-background:new 0 0 374 45.8;" xml:space="preserve">
<style type="text/css">
	.st0{fill-rule:evenodd;clip-rule:evenodd;fill:#FFFFFF;}
</style>
<g>
	<g>
		<g>
			<g>
				<path class="st0" d="M9.4,2.3c0,4.3,0,10.9-0.1,19.7c-0.1,8.8-0.1,15.3-0.1,19.7H0c0-4.3,0-10.9,0.1-19.7
					C0.2,13.2,0.2,6.6,0.2,2.3H9.4z"/>
				<path class="st0" d="M57.5,18.1c0,5.4-0.3,9.7-0.8,12.8c-0.6,3.5-1.9,7.7-3.8,12.6l-9.1-1.7c3-6.8,4.5-14.7,4.5-23.6
					c0-6-1.3-8.9-3.9-8.9c-2.3,0-3.9,2.5-4.8,7.6c-0.5,2.9-0.8,6.3-0.8,10.2c0,5.7,0.4,9.7,1.1,12.2h-9.7c0.7-2.3,1-6.3,1-12.1
					c0-4-0.3-7.4-0.8-10.3c-0.9-5.1-2.4-7.7-4.7-7.7c-2.6,0-4,3-4,8.9c0,8.9,1.5,16.8,4.5,23.6l-9.1,1.7c-1.9-4.9-3.2-9.1-3.8-12.6
					c-0.6-3.1-0.8-7.4-0.8-12.8c0-4.9,0.9-9,2.8-12.2C17.9,2,21.3,0,25.9,0c3.7,0,6.7,1.9,9.2,5.6C37.7,1.9,40.8,0,44.4,0
					c4.6,0,8,2,10.3,5.9C56.6,9.2,57.5,13.2,57.5,18.1z"/>
				<path class="st0" d="M89,14.4c0,9.1-5.7,14.9-17.2,17.3c0.1,3.5,0.2,6.8,0.2,10h-9.2c0-8.2-0.8-22-2.4-41.5h3.8
					c7.2,0,12.6,0.7,16.2,2C86.1,4.3,89,8.4,89,14.4z M79.8,14.4c0-1.8-1.2-3.1-3.6-4.1c-1.7-0.7-3.7-1-5.9-1
					c0.4,5.2,0.8,9.6,1,13.1C76.9,21.1,79.8,18.4,79.8,14.4z"/>
				<path class="st0" d="M112.1,43.9l-1.4,0.1c-6.2,0.1-11.1-1.9-14.8-6.1c-3.4-4-5.2-9.1-5.2-15.5c0-5.9,1.2-10.9,3.7-15
					c3-4.8,7.2-7.3,12.7-7.3c0.8,0,1.6,0,2.5,0.1l-1.1,9.1l-1-0.1c-3.7-0.2-6.1,2.6-7.1,8.4c2.6,0,5.1-0.2,7.5-0.5l1,9.2
					c-2.6,0.3-5.4,0.5-8.4,0.5c1.2,5.2,4.7,7.8,10.7,7.8L112.1,43.9z"/>
				<path class="st0" d="M144.1,37.9l-5.7,7.2c-1.3-1-3.6-3.1-6.8-6.1c-2.8-2.6-5.1-4.6-7-5.9l-0.1,9.8h-9.2c0-0.3,0.1-7.4,0.3-21.4
					c0.1-8.5,0.1-15.7-0.2-21.3l3.8-0.1c5.9-0.2,10.8,0.6,14.8,2.5c5.2,2.4,7.8,6.3,7.8,11.7c0,6.4-2.8,11-8.4,13.9
					C135.6,30.4,139.2,33.6,144.1,37.9z M132.6,14.2c0-2.2-2.6-3.6-7.7-4.4c0.1,3.4,0.1,7.3,0,11.9c2.8-1,4.6-1.8,5.4-2.4
					C131.8,18.1,132.6,16.4,132.6,14.2z"/>
				<path class="st0" d="M157.6,2.3c0,4.3,0,10.9-0.1,19.7c-0.1,8.8-0.1,15.3-0.1,19.7h-9.2c0-4.3,0-10.9,0.1-19.7
					s0.1-15.3,0.1-19.7H157.6z"/>
				<path class="st0" d="M195.6,22.7c0,3.1-0.4,6.5-1.1,10.3c-0.3,1.4-1.1,4.8-2.3,10.1l-9-2.1c0.7-2.6,1.6-6.4,2.7-11.7
					c-2.2,0.6-4.7,1.5-7.6,2.8c-2.4,1.2-4.8,2.4-7.2,3.6l1.2,4.8l-9,2.1c-1.4-5.7-2.1-9-2.2-9.8c-0.8-3.7-1.1-7-1.1-10
					c0-5.9,1.4-10.9,4.3-15.1c3.2-4.7,7.7-7.1,13.3-7.1c5.6,0,10.1,2.4,13.5,7.1C194.1,11.8,195.6,16.9,195.6,22.7z M186.3,19.9
					c-0.4-2.7-1.3-4.9-2.6-6.8c-1.6-2.3-3.6-3.4-6.1-3.4c-2.9,0-5.1,1.5-6.6,4.5c-1.2,2.4-1.8,5.2-1.8,8.4c0,1.2,0.1,2.4,0.2,3.6
					c3.7-1.9,6.4-3.2,8.2-3.9C180.8,21,183.7,20.2,186.3,19.9z"/>
				<path class="st0" d="M216.2,45.3c-5.6,0-10-1.6-13-4.7c-3.1-3.1-4.6-7.5-4.6-13.1c0-3.5,0.5-8,1.5-13.7c1.2-7,2-11.5,2.2-13.7
					l9.2,0.9c-0.2,2.1-0.9,6.5-2.2,13.2c-1,5.4-1.5,9.8-1.5,13.2c0,3.1,0.6,5.3,1.9,6.7c1.3,1.3,3.5,2,6.5,1.9V45.3z"/>
				<path class="st0" d="M261.2,37.9l-5.7,7.2c-1.3-1-3.6-3.1-6.8-6.1c-2.8-2.6-5.1-4.6-7-5.9l-0.1,9.8h-9.2c0-0.3,0.1-7.4,0.3-21.4
					c0.1-8.5,0.1-15.7-0.2-21.3l3.8-0.1c5.9-0.2,10.8,0.6,14.8,2.5c5.2,2.4,7.8,6.3,7.8,11.7c0,6.4-2.8,11-8.4,13.9
					C252.8,30.4,256.4,33.6,261.2,37.9z M249.7,14.2c0-2.2-2.6-3.6-7.7-4.4c0.1,3.4,0.1,7.3,0,11.9c2.8-1,4.6-1.8,5.4-2.4
					C248.9,18.1,249.7,16.4,249.7,14.2z"/>
				<path class="st0" d="M283,43.9l-1.4,0.1c-6.2,0.1-11.1-1.9-14.8-6.1c-3.4-4-5.2-9.1-5.2-15.5c0-5.9,1.2-10.9,3.7-15
					c3-4.8,7.2-7.3,12.7-7.3c0.8,0,1.6,0,2.5,0.1l-1.1,9.1l-1-0.1c-3.7-0.2-6.1,2.6-7.1,8.4c2.6,0,5.1-0.2,7.5-0.5l1,9.2
					c-2.6,0.3-5.4,0.5-8.4,0.5c1.2,5.2,4.7,7.8,10.7,7.8L283,43.9z"/>
				<path class="st0" d="M295,2.3c0,4.3,0,10.9-0.1,19.7c-0.1,8.8-0.1,15.3-0.1,19.7h-9.2c0-4.3,0-10.9,0.1-19.7
					c0.1-8.8,0.1-15.3,0.1-19.7H295z"/>
				<path class="st0" d="M321.5,32.6c0,3.6-1.2,6.7-3.7,9.3c-2.5,2.6-5.5,3.9-9.1,3.9c-2.9,0-5.6-1-8-2.9l5.7-7.2
					c0.7,0.6,1.5,0.9,2.3,0.9c1.1,0,1.9-0.4,2.6-1.2c0.7-0.8,1-1.8,1-2.8c0-1-1.2-2.5-3.6-4.3c-3.2-2.5-5.4-4.5-6.7-6.1
					c-2.4-3.1-3.6-6.6-3.6-10.6c0-3.3,1.1-6,3.4-8.2c2.3-2.2,5-3.3,8.4-3.3c2.8,0,5.3,0.9,7.5,2.6L312,9.9c-0.6-0.4-1.2-0.6-2-0.6
					c-1.6,0-2.4,0.8-2.4,2.3c0,2.5,1.2,4.8,3.6,7c2.3,1.9,4.5,3.7,6.7,5.5C320.3,26.5,321.5,29.3,321.5,32.6z"/>
				<path class="st0" d="M344.4,43.9L343,44c-6.2,0.1-11.1-1.9-14.8-6.1c-3.4-4-5.2-9.1-5.2-15.5c0-5.9,1.2-10.9,3.7-15
					c3-4.8,7.2-7.3,12.7-7.3c0.8,0,1.6,0,2.5,0.1l-1.1,9.1l-1-0.1c-3.7-0.2-6.1,2.6-7.1,8.4c2.6,0,5.1-0.2,7.5-0.5l1,9.2
					c-2.6,0.3-5.4,0.5-8.4,0.5c1.2,5.2,4.7,7.8,10.7,7.8L344.4,43.9z"/>
				<path class="st0" d="M374,16.2c0,8.5-2.1,17.8-6.3,28.1l-8.5-3.4c1.4-3.5,2.7-7.7,3.9-12.4c1.3-5.3,1.9-9.5,1.9-12.7
					c0-4-1.1-6.1-3.3-6.1c-3,0-5.2,2-6.4,6.1c-0.9,2.7-1.3,5.9-1.3,9.8c0,2,0.3,4.4,0.8,7.2c0.4,2.4,0.9,4.8,1.3,7.2L347,43
					c-1.4-7.1-2.1-15.2-2.1-24.3c0-6.7,0.4-12.3,1.3-16.8l8.7-1.5L354.4,4c1.7-2.3,4.2-3.5,7.3-3.5C369.9,0.5,374,5.7,374,16.2z"/>
			</g>
		</g>
	</g>
</g>
</svg>
