<?xml version="1.0" encoding="utf-8"?>
<!-- Generator: Adobe Illustrator 25.2.3, SVG Export Plug-In . SVG Version: 6.00 Build 0)  -->
<svg version="1.1" id="Ebene_1" xmlns="http://www.w3.org/2000/svg" xmlns:xlink="http://www.w3.org/1999/xlink" x="0px" y="0px"
	 viewBox="0 0 20.7 16.8" style="enable-background:new 0 0 20.7 16.8;" xml:space="preserve">
<style type="text/css">
	.st0{fill:#E20613;}
</style>
<g>
	<path class="st0" d="M17.2,16.6c-0.7,0.2-1.4,0.3-2.2,0.2c-1.6-0.1-3.3-0.6-4.6-1c-1.2-0.4-2.4-1.1-3.7-1.9
		c-1.3-0.8-2.3-1.7-3.2-2.6c-0.9-1-2-2.4-2.7-3.8c-0.8-1.7-0.9-3.3-0.4-4.8C0.6,2,1,1.5,1.4,1c0.5-0.4,1-0.7,1.7-0.9
		c0.4-0.1,1-0.2,1.5,0.4C5.1,1,5.6,1.5,6,2c0.3,0.4,0.6,0.7,0.9,1.1c0.2,0.2,0.4,0.5,0.5,0.7c0.3,0.5,0.3,0.9-0.1,1.4
		C6.9,5.9,6.5,6.5,6,7.1c0,0,0,0.1-0.1,0.1c0,0,0,0.1,0.1,0.2C7,8.6,8,9.5,9.1,10.2l0,0c1.1,0.7,2.3,1.3,3.8,1.7c0.1,0,0.2,0,0.2,0
		c0,0,0.1-0.1,0.1-0.1c0.4-0.6,0.8-1.3,1.2-1.9c0.3-0.5,0.7-0.7,1.3-0.6c0.3,0,0.6,0.1,0.9,0.2c0.5,0.1,0.9,0.3,1.3,0.4
		c0.6,0.2,1.3,0.4,1.9,0.6c0.8,0.2,1,0.8,1,1.3c0.1,0.7,0,1.4-0.2,2c-0.2,0.6-0.5,1.1-1,1.6C18.8,15.9,18.1,16.4,17.2,16.6z
		 M3.6,1.1C3.6,1.2,3.6,1.2,3.6,1.1C3,1.4,2.5,1.6,2.2,1.9C1.8,2.2,1.6,2.5,1.4,3c-1,2.6,0.9,5.2,2.9,7.5c0.8,0.9,1.8,1.7,3,2.4l0,0
		c1.2,0.8,2.3,1.4,3.4,1.8c2.8,1,6,1.7,8-0.2c0.3-0.3,0.6-0.7,0.7-1.1c0.1-0.4,0.2-0.9,0.1-1.5c0-0.1,0-0.2-0.2-0.2
		c-0.6-0.2-1.3-0.4-1.9-0.6c-0.4-0.1-0.9-0.3-1.3-0.4c-0.2-0.1-0.5-0.1-0.7-0.2c0,0,0,0,0,0c0,0,0,0-0.1,0.1c-0.4,0.7-0.8,1.3-1.2,2
		c-0.1,0.1-0.2,0.4-0.5,0.5c-0.4,0.2-0.8,0.1-1,0c-1.6-0.4-3-1-4.2-1.8l0,0C7.2,10.4,6.2,9.4,5.2,8C5,7.9,4.8,7.5,4.8,7.1
		c0-0.3,0.2-0.5,0.3-0.7C5.5,5.8,6,5.2,6.4,4.6c0,0,0.1-0.1,0.1-0.1c0,0,0,0,0,0C6.4,4.2,6.2,4,6,3.8C5.7,3.5,5.4,3.1,5.1,2.8
		c-0.4-0.5-0.9-1-1.3-1.5C3.7,1.1,3.7,1.1,3.6,1.1z M13.1,11.9L13.1,11.9L13.1,11.9z M5.9,7.2L5.9,7.2L5.9,7.2z M6.5,4.5L6.5,4.5
		L6.5,4.5z"/>
</g>
</svg>
