<?xml version="1.0" encoding="utf-8"?>
<!-- Generator: Adobe Illustrator 25.2.3, SVG Export Plug-In . SVG Version: 6.00 Build 0)  -->
<svg version="1.1" id="Ebene_1" xmlns="http://www.w3.org/2000/svg" xmlns:xlink="http://www.w3.org/1999/xlink" x="0px" y="0px"
	 viewBox="0 0 20.8 14.1" style="enable-background:new 0 0 20.8 14.1;" xml:space="preserve">
<style type="text/css">
	.st0{fill:#E20613;}
</style>
<path class="st0" d="M20.1,0H0.7C0.3,0,0,0.3,0,0.7v12.7c0,0.4,0.3,0.7,0.7,0.7h19.4c0.4,0,0.7-0.3,0.7-0.7V0.7
	C20.8,0.3,20.5,0,20.1,0z M19.7,1.9v10.4L14.5,7L19.7,1.9z M10.2,9.5L1.9,1.1h17l-8.4,8.4C10.4,9.5,10.3,9.5,10.2,9.5z M7.1,7.8
	l2.9,2.9c0.1,0.1,0.2,0.2,0.4,0.2c0.1,0,0.3-0.1,0.4-0.2l3-3l5.2,5.2h-17L7.1,7.8z M6.3,7.1l-5.2,5.2V1.9L6.3,7.1z"/>
</svg>
