<?xml version="1.0" encoding="utf-8"?>
<!-- Generator: Adobe Illustrator 25.2.3, SVG Export Plug-In . SVG Version: 6.00 Build 0)  -->
<svg version="1.1" id="Ebene_1" xmlns="http://www.w3.org/2000/svg" xmlns:xlink="http://www.w3.org/1999/xlink" x="0px" y="0px"
	 viewBox="0 0 7.1 13.2" style="enable-background:new 0 0 7.1 13.2;" xml:space="preserve">
<style type="text/css">
	.st0{fill:#FFFFFF;}
</style>
<g>
	<path class="st0" d="M4.8,7.5c0,0.1,0,0.2,0,0.2c0,1.7,0,3.4,0,5c0,0.5,0,0.5-0.5,0.5c-0.6,0-1.2,0-1.8,0c-0.3,0-0.4-0.1-0.4-0.4
		c0-1.7,0-3.4,0-5.1c0-0.1,0-0.1,0-0.2c-0.1,0-0.1,0-0.2,0c-0.5,0-0.9,0-1.4,0C0.1,7.5,0,7.4,0,7.1c0-0.6,0-1.3,0-1.9
		c0-0.3,0.1-0.4,0.4-0.4c0.5,0,0.9,0,1.4,0c0.1,0,0.1,0,0.2,0c0-0.1,0-0.1,0-0.2c0-0.6,0-1.2,0-1.8C2.2,1.2,3.3,0.1,4.9,0
		c0.6,0,1.3,0,1.9,0C7,0,7.1,0.1,7.1,0.3c0,0.6,0,1.3,0,1.9c0,0.2-0.1,0.3-0.3,0.3c-0.4,0-0.9,0-1.3,0C5,2.6,4.8,2.8,4.8,3.3
		c0,0.5,0,1,0,1.5c0.1,0,0.1,0,0.2,0c0.6,0,1.1,0,1.7,0c0.3,0,0.4,0.1,0.4,0.4c0,0.6,0,1.3,0,1.9c0,0.3-0.1,0.4-0.4,0.4
		c-0.6,0-1.1,0-1.7,0C4.9,7.5,4.9,7.5,4.8,7.5z"/>
</g>
</svg>
