<?xml version="1.0" encoding="utf-8"?>
<!-- Generator: Adobe Illustrator 25.2.3, SVG Export Plug-In . SVG Version: 6.00 Build 0)  -->
<svg version="1.1" id="Ebene_1" xmlns="http://www.w3.org/2000/svg" xmlns:xlink="http://www.w3.org/1999/xlink" x="0px" y="0px"
	 viewBox="0 0 13.6 18.6" style="enable-background:new 0 0 13.6 18.6;" xml:space="preserve">
<style type="text/css">
	.st0{fill:#FFFFFF;stroke:#FFFFFF;stroke-width:1.2728;stroke-miterlimit:10;}
</style>
<g>
	<path class="st0" d="M13,6.8c-0.3,1-0.6,2.1-1.1,3c-1.4,2.6-3,5-4.6,7.6c-0.5,0.8-0.7,0.8-1.2,0.1c-1.6-2.6-3.2-5.1-4.7-7.8
		c-1.6-2.8-0.7-6.4,2-8.1c2.7-1.7,6.2-1.1,8.1,1.5C12.4,4.1,12.8,5.3,13,6.8z M6.6,16.7c0.2-0.1,0.3-0.1,0.3-0.2
		c1.5-2.5,3.2-5,4.6-7.6c1.1-2.1,0.4-4.7-1.4-6.2C8.1,1,5.3,1,3.3,2.7C1.4,4.2,0.8,7,2.1,9.1C3.5,11.6,5,14,6.5,16.4
		C6.5,16.5,6.6,16.6,6.6,16.7z"/>
	<path class="st0" d="M9.3,6.7c0,1.4-1.1,2.6-2.6,2.6c-1.4,0-2.5-1.2-2.6-2.5c0-1.4,1.1-2.6,2.6-2.6C8.1,4.1,9.3,5.2,9.3,6.7z
		 M6.7,5C5.7,5,5,5.7,4.9,6.7c0,1,0.8,1.8,1.8,1.8c1,0,1.7-0.8,1.7-1.8C8.5,5.7,7.7,5,6.7,5z"/>
</g>
</svg>
