<?xml version="1.0" encoding="utf-8"?>
<!-- Generator: Adobe Illustrator 25.2.3, SVG Export Plug-In . SVG Version: 6.00 Build 0)  -->
<svg version="1.1" id="Ebene_1" xmlns="http://www.w3.org/2000/svg" xmlns:xlink="http://www.w3.org/1999/xlink" x="0px" y="0px"
	 viewBox="0 0 13.4 17.6" style="enable-background:new 0 0 13.4 17.6;" xml:space="preserve">
<style type="text/css">
	.st0{fill:#FFFFFF;stroke:#FFFFFF;stroke-width:0.4428;stroke-miterlimit:10;}
</style>
<g>
	<path class="st0" d="M9.5,17.4C8.2,17.4,7,16.8,5.9,16C2.5,13.3,0.6,9.8,0.2,5.5c-0.1-0.7,0-1.4,0.2-2.1c0.3-1.6,1.8-3,3.5-3.2
		c0.4,0,0.9,0.2,1.1,0.5c0.5,0.7,1,1.5,1.4,2.3c0.3,0.6,0.2,1.2-0.4,1.6C4.8,5.3,4.7,6.4,5,7.6c0.3,1.7,1.2,3.1,2.7,4.1
		c0.7,0.5,1.4,0.6,2.2,0.2c1.1-0.5,1.5-0.4,2.1,0.7c0.3,0.6,0.7,1.2,1,1.8c0.4,0.7,0.3,1.2-0.3,1.7C11.7,16.8,10.8,17.5,9.5,17.4z
		 M9.5,16.9c1.1-0.1,1.8-0.7,2.6-1.3c0.4-0.3,0.4-0.6,0.2-1c-0.3-0.6-0.7-1.2-1-1.8c-0.3-0.6-0.6-0.7-1.2-0.4
		c-1,0.6-1.9,0.4-2.9-0.3c-1.6-1.2-2.6-2.7-3-4.6C4.1,6.1,4.2,4.9,5.6,4.1C6,3.9,6,3.6,5.8,3.2C5.4,2.5,5,1.9,4.6,1.3
		c-0.2-0.4-0.5-0.5-1-0.3C1.8,1.6,0.9,2.7,0.9,4.7c0.1,5,2.3,8.8,6.5,11.4C8,16.5,8.8,16.6,9.5,16.9z"/>
</g>
</svg>
