<?xml version="1.0" encoding="utf-8"?>
<!-- Generator: Adobe Illustrator 25.2.3, SVG Export Plug-In . SVG Version: 6.00 Build 0)  -->
<svg version="1.1" id="Ebene_1" xmlns="http://www.w3.org/2000/svg" xmlns:xlink="http://www.w3.org/1999/xlink" x="0px" y="0px"
	 viewBox="0 0 43.4 37.7" style="enable-background:new 0 0 43.4 37.7;" xml:space="preserve">
<style type="text/css">
	.st0{fill:#E20613;}
</style>
<g>
	<path class="st0" d="M43.4,7.4c0-0.2,0-0.4,0-0.6c-0.5-0.9-0.8-1-1.8-1C41,5.9,40.4,6,39.8,6c0.7-1.4,1.3-2.7,2-4
		c0.2-0.4,0.3-0.9,0-1.3C41.4,0,40.7-0.2,40,0.2c-1.7,0.8-3.3,1.6-5,2.5c-0.2,0.1-0.4,0.1-0.7,0c-3.5-1.5-6.9-1.1-9.8,1.3
		c-2.7,2.2-3.8,5.2-3.8,8.6c0,0.6,0,0.6-0.6,0.5c-3.5-0.4-6.5-1.8-9.2-3.9c-2-1.6-3.7-3.7-4.9-6C5.3,2.1,4.2,2.1,3.5,3.1
		C2,5.3,1.7,7.8,2.4,10.3c0.2,0.6,0.4,1.2,0.7,1.8c-0.5-0.2-1-0.3-1.4-0.4c-0.9-0.2-1.7,0.5-1.6,1.4c0.1,0.5,0.2,1,0.4,1.6
		c0.7,2.4,2.2,4.4,4.3,5.8c0.5,0.3,1,0.6,1.5,0.9c-0.4,0.1-0.8,0.2-1.2,0.3c-0.6,0.1-0.9,0.4-1.1,1c-0.1,0.5,0.1,1,0.5,1.3
		c1.5,1.6,3.4,2.6,5.4,3.4c0.9,0.4,1.9,0.7,2.9,0.9c-0.3,0.2-0.6,0.4-0.9,0.6c-0.1,0.1-0.2,0.1-0.4,0.2c-2,1.1-4.1,1.5-6.3,1.6
		c-0.9,0-1.9,0-2.8,0c-0.6,0-1,0.2-1.3,0.8c-0.2,0.5-0.1,1.1,0.4,1.5c0.5,0.5,1,0.8,1.6,1.1c2.2,1.2,4.6,1.9,7.1,2.4
		c4.5,1,8.9,1.2,13.4,0.4c2.6-0.4,5-1.3,7.3-2.6c4.1-2.4,6.9-6,8.8-10.2c1.9-4.1,2.3-8.5,1.6-12.9c0-0.3,0-0.5,0.1-0.7
		C42,9.6,42.7,8.6,43.4,7.4z M39.2,9.3c-0.6,0.8-0.7,1.6-0.6,2.6c0.6,3.7,0.3,7.3-1.1,10.8c-0.9,2.2-2.2,4.2-3.7,6
		c-2.9,3.5-6.7,5.3-11.1,6c-3.1,0.5-6.3,0.5-9.4,0.1c-2-0.3-4-0.7-6-1.4c0.2-0.2,0.5-0.1,0.7-0.2c3.3-0.5,6-2.1,8.3-4.6
		c0.8-0.9,0.4-2-0.7-2.2c-1.4-0.3-2.8-0.5-4.1-1c-1.3-0.5-2.5-1-3.7-1.8c0.8-0.3,1.5-0.7,2.1-1.1c0.6-0.3,0.9-0.7,0.8-1.4
		c-0.1-0.7-0.6-1-1.2-1.2c-1.5-0.4-3-1.1-4.2-2.1c-0.9-0.8-1.7-1.7-2.2-2.9C4,15,4.8,15,5.6,14.9c0.5-0.1,1-0.3,1.2-0.8
		c0.2-0.5,0.1-1-0.3-1.4c-1.2-1.3-1.8-2.8-1.9-4.5c0-0.5,0-1.1,0.2-1.7C5.4,7.2,6,8,6.6,8.7c3.1,3.4,6.8,5.6,11.3,6.7
		c1.4,0.3,2.8,0.5,4.2,0.5c0.9,0,1.5-0.6,1.4-1.5c-0.2-1.1-0.3-2.2-0.1-3.4C23.8,8,25.9,5.1,29,4.5c1.6-0.3,3.2-0.1,4.6,0.7
		c0.7,0.4,1.3,0.4,1.9,0.1c0.6-0.3,1.2-0.6,1.9-0.9c0.1,0,0.2-0.2,0.3-0.1c0.1,0.1,0,0.2-0.1,0.3c-0.4,0.7-0.7,1.5-1.1,2.2
		c-0.5,1.1,0.1,2.1,1.3,2c0.5,0,1.1-0.1,1.7-0.1C39.5,8.9,39.3,9.1,39.2,9.3z"/>
</g>
</svg>
