<?xml version="1.0" encoding="utf-8"?>
<!-- Generator: Adobe Illustrator 25.2.3, SVG Export Plug-In . SVG Version: 6.00 Build 0)  -->
<svg version="1.1" id="Ebene_1" xmlns="http://www.w3.org/2000/svg" xmlns:xlink="http://www.w3.org/1999/xlink" x="0px" y="0px"
	 viewBox="0 0 1802.6 569.9" style="enable-background:new 0 0 1802.6 569.9;" xml:space="preserve">
<style type="text/css">
	.st0{opacity:0.28;}
	.st1{fill:#231F20;}
</style>
<g class="st0">
	<g>
		<polygon class="st1" points="1782.6,29.3 1802.6,73.2 1799.4,78.5 1779.5,59.5 1769.4,51.2 		"/>
		<polygon class="st1" points="1756.2,67 1762.8,81.6 1761,84.5 1750,75.7 		"/>
		<path class="st1" d="M1785.8,54.6l-4.9-3l6.5-11.5c0.4-0.7,1.1-1.1,1.9-1.1l0,0c1.7-0.1,3.2,0.8,3.9,2.3l0,0
			c0.3,0.7,0.2,1.5-0.2,2.2L1785.8,54.6z"/>
		<path class="st1" d="M1792.3,68.7l-4.9-3l6.5-11.5c0.4-0.7,1.1-1.1,1.9-1.1l0,0c1.7-0.1,3.2,0.8,3.9,2.3l0,0
			c0.3,0.7,0.2,1.5-0.2,2.2L1792.3,68.7z"/>
		<polygon class="st1" points="1774.9,24.6 1727,27.3 1723.8,32.6 1749.5,41.4 1761.6,46.5 		"/>
		<path class="st1" d="M1795,0.3c-6.3-3.8-29,34.5-41.8,59.7c-5.5,10.8-5.8,17-5,17.4c0.8,0.5,6.1-2.6,13.2-12.5
			C1777.7,41.9,1801.2,4.1,1795,0.3z"/>
		<polygon class="st1" points="1753.7,65.5 1737.6,66.4 1735.9,69.2 1748.8,75 		"/>
		<path class="st1" d="M1751.2,33.2l4.9,3l7.2-11.1c0.4-0.7,0.5-1.5,0.2-2.2l0,0c-0.7-1.5-2.2-2.5-3.9-2.3l0,0
			c-0.8,0.1-1.5,0.5-1.9,1.1L1751.2,33.2z"/>
		<path class="st1" d="M1735.5,34.2l4.9,3l7.2-11.1c0.4-0.7,0.5-1.5,0.2-2.2l0,0c-0.7-1.5-2.2-2.5-3.9-2.3l0,0
			c-0.8,0.1-1.5,0.5-1.9,1.1L1735.5,34.2z"/>
	</g>
	<g>
		<g>
			<path class="st1" d="M1734.3,116.3l-6-3.7c2.1-3.3,4.1-6.6,6.2-9.9l6,3.7C1738.4,109.6,1736.4,113,1734.3,116.3z"/>
		</g>
		<g>
			<path class="st1" d="M1256.8,569.9h-0.3c-7.9,0-15.8-0.6-23.4-1.7l1-7c7.3,1.1,14.9,1.6,22.4,1.6h0.3V569.9z M1280.5,568.2l-1-7
				c7.3-1,14.9-2.6,22.4-4.5l1.8,6.8C1295.9,565.5,1288.1,567.1,1280.5,568.2z M1209.8,562.7c-7.4-2.5-14.8-5.7-21.9-9.6l3.4-6.2
				c6.7,3.7,13.7,6.7,20.7,9.1L1209.8,562.7z M1326.2,556.2l-2.5-6.6c6.9-2.6,14-5.6,21.1-9l3,6.4
				C1340.6,550.4,1333.3,553.6,1326.2,556.2z M416.8,556.2c-8-0.1-15.9-0.6-23.5-1.4l0.7-7c7.4,0.8,15.1,1.2,22.9,1.3L416.8,556.2z
				 M440.4,555.6l-0.4-7c7.4-0.4,15.2-1.2,23-2.2l0.9,7C455.9,554.4,448,555.2,440.4,555.6z M370,551.2c-7.8-1.6-15.5-3.6-22.9-5.9
				l2.1-6.7c7.2,2.3,14.6,4.2,22.1,5.8L370,551.2z M487.1,549.9l-1.3-6.9c7.6-1.4,15.2-3,22.6-4.9l1.7,6.8
				C502.6,546.8,494.9,548.4,487.1,549.9z M1168,540.1c-6-4.6-12-9.8-17.9-15.5l4.9-5.1c5.7,5.6,11.6,10.6,17.3,15L1168,540.1z
				 M532.7,538.4l-2.2-6.7c7.3-2.4,14.6-5,21.6-7.9l2.6,6.5C547.6,533.3,540.2,536,532.7,538.4z M325,536.9
				c-7.1-3.1-14.2-6.7-21.1-10.7l3.5-6.1c6.7,3.9,13.6,7.3,20.4,10.4L325,536.9z M1368.8,536l-3.5-6.1c6.5-3.7,13.1-7.7,19.7-12
				l3.8,5.9C1382.1,528.2,1375.4,532.3,1368.8,536z M576.3,520.7l-3.1-6.3c6.8-3.3,13.7-7,20.3-10.9l3.5,6.1
				C590.2,513.6,583.3,517.3,576.3,520.7z M284.1,513.5c-6.2-4.3-12.3-9-18.8-14.3l4.5-5.5c6.3,5.1,12.3,9.7,18.4,14L284.1,513.5z
				 M1133.9,507.4c-4.8-5.5-9.7-11.5-14.9-18.2l5.6-4.3c5.1,6.6,9.9,12.5,14.6,17.9L1133.9,507.4z M617,497.1l-3.9-5.8
				c6.2-4.2,12.5-8.7,18.8-13.5l4.3,5.6C629.8,488.3,623.3,492.9,617,497.1z M247.5,483.9c-5.1-4.6-10.6-9.7-17.1-16l4.9-5.1
				c6.5,6.2,11.9,11.2,17,15.8L247.5,483.9z M1105,470.4c-4.8-6.7-9.5-13.4-13.5-19.1l5.8-4c4,5.7,8.7,12.4,13.5,19L1105,470.4z
				 M213.6,451.7c-5.3-5.1-11-10.7-16.8-16.1l4.8-5.1c5.8,5.4,11.6,11,16.9,16.1L213.6,451.7z M1078.1,432.1
				c-5.2-7.4-9.5-13.5-13.5-18.9l5.7-4.2c4,5.5,8.4,11.6,13.6,19L1078.1,432.1z M179.6,420.1c-6.2-5.4-12-10.2-17.8-14.7l4.3-5.6
				c5.9,4.6,11.8,9.5,18.1,15L179.6,420.1z M1050.6,394.7c-5.1-6.5-10-12.3-14.8-17.8l5.3-4.7c4.9,5.6,9.9,11.5,15.1,18.1
				L1050.6,394.7z M143.1,391.9c-6.5-4.3-13.1-8.3-19.6-11.9l3.4-6.2c6.7,3.7,13.5,7.8,20.2,12.2L143.1,391.9z M102.8,369.9
				c-7-3-14.2-5.7-21.5-8.1l2.2-6.7c7.5,2.4,14.9,5.2,22.1,8.3L102.8,369.9z M1019.8,360.2c-5.7-5.5-11.5-10.6-17.2-15.2l4.4-5.5
				c5.9,4.7,11.9,9.9,17.8,15.6L1019.8,360.2z M59.2,355.8c-7.3-1.6-14.9-3-22.6-4l0.9-7c7.9,1,15.7,2.4,23.2,4.1L59.2,355.8z
				 M790.4,341.6l-4.1-5.7c6.7-4.8,13.4-9.1,19.9-12.8l3.5,6.1C803.4,332.9,796.9,337,790.4,341.6z M983.9,332
				c-6.6-4-13.4-7.5-20.2-10.5l2.8-6.5c7.1,3.1,14.2,6.8,21.1,11L983.9,332z M830.2,319.3l-2.7-6.5c7.4-3,15-5.5,22.6-7.4l1.7,6.8
				C844.5,314,837.3,316.4,830.2,319.3z M942.2,314c-3.9-1-7.9-2-11.8-2.7c-3.6-0.7-7.1-1.3-10.6-1.8l1-7c3.6,0.5,7.2,1.1,10.9,1.8
				c4.2,0.8,8.3,1.7,12.4,2.8L942.2,314z M1602.2,308.8l-5.6-4.3c4.6-6.1,9.3-12.3,14-18.6l5.7,4.2
				C1611.6,296.4,1606.8,302.7,1602.2,308.8z M874.2,308.3l-0.7-7c7.7-0.8,15.7-1.1,23.7-0.8l-0.2,7
				C889.2,307.3,881.6,307.5,874.2,308.3z M1630.1,271.3l-5.7-4.1c4.5-6.2,9.1-12.5,13.6-18.9l5.7,4.1
				C1639.2,258.7,1634.6,265.1,1630.1,271.3z M1657.2,233.2l-5.8-4c4.4-6.3,8.8-12.7,13.2-19.2l5.8,4
				C1666,220.5,1661.5,226.9,1657.2,233.2z M1683.5,194.6l-5.9-3.9c4.3-6.4,8.6-12.9,12.9-19.4l5.9,3.9
				C1692.1,181.7,1687.8,188.3,1683.5,194.6z M1709.2,155.7l-5.9-3.8c4.2-6.4,8.4-13,12.6-19.6l5.9,3.8
				C1717.6,142.6,1713.4,149.2,1709.2,155.7z"/>
		</g>
		<g>
			<path class="st1" d="M11.6,349.6c-3.8-0.2-7.7-0.3-11.6-0.4l0.1-7c4,0.1,8,0.2,11.9,0.4L11.6,349.6z"/>
		</g>
	</g>
</g>
</svg>
