<?xml version="1.0" encoding="utf-8"?>
<!-- Generator: Adobe Illustrator 25.2.3, SVG Export Plug-In . SVG Version: 6.00 Build 0)  -->
<svg version="1.1" id="Ebene_1" xmlns="http://www.w3.org/2000/svg" xmlns:xlink="http://www.w3.org/1999/xlink" x="0px" y="0px"
	 viewBox="0 0 125 125" style="enable-background:new 0 0 125 125;" xml:space="preserve">
<style type="text/css">
	.st0{fill:#F9B233;}
	.st1{fill:#D18B39;}
	.st2{fill:#C9C7CF;}
	.st3{fill:#FFFFFF;}
	.st4{fill:#AC483D;}
	.st5{fill:#E2504D;}
	.st6{fill:#78B7E5;}
</style>
<g id="sunbed_1_">
	<g id="herbs_1_">
		<circle class="st0" cx="62.5" cy="62.5" r="62.5"/>
	</g>
	<path class="st1" d="M54.4,124.5c2.7,0.3,5.3,0.5,8.1,0.5c32.8,0,59.6-25.2,62.3-57.3l-42-42l-3.5,0.7L19.6,54.7l17.1,17.1l-17,9
		l4.1,4.1l-5.4,3.5L54.4,124.5z"/>
	<g>
		<polygon class="st2" points="48.6,33.4 49.6,33.1 72.5,88.4 71.4,88.4 		"/>
		<polygon class="st3" points="70.3,88.4 47.7,33.8 48.6,33.4 71.4,88.4 		"/>
	</g>
	<g>
		<path class="st4" d="M45.9,26.7c17.9-7.4,35-6.9,38.4,1.2l-8.9,3.7C72,23.6,58.8,21.4,45.9,26.7z"/>
		<path class="st5" d="M45.9,26.7C32.9,32.1,25.1,43,28.4,51l-8.9,3.7C16.2,46.7,28,34.1,45.9,26.7z"/>
		<path class="st2" d="M75.3,31.6l-13.7,5.7c-3.3-8-10.4-12.8-15.7-10.5C58.8,21.4,72,23.6,75.3,31.6z"/>
		<path class="st3" d="M42.2,45.3L28.4,51c-3.3-8,4.5-18.9,17.4-24.3C40.5,29,38.9,37.3,42.2,45.3z"/>
	</g>
	<g>
		<path class="st5" d="M45.9,26.7l6,14.6l-9.7,4C38.9,37.3,40.5,29,45.9,26.7z"/>
		<path class="st4" d="M61.6,37.3l-9.7,4l-6-14.6C51.2,24.5,58.3,29.2,61.6,37.3z"/>
	</g>
	<polygon class="st6" points="104.8,55.1 88.1,71.7 20.6,71.7 20.6,77.7 90.6,77.7 109,59.4 	"/>
	<rect x="19.6" y="77.7" class="st4" width="71" height="3"/>
	<rect x="87.7" y="67.8" transform="matrix(0.7071 -0.7071 0.7071 0.7071 -19.3305 91.8606)" class="st4" width="27" height="3"/>
	<polygon class="st4" points="102.9,88.3 97.7,88.4 89.2,79.9 92.3,77.7 	"/>
	<polygon class="st4" points="18.3,88.3 23.5,88.4 32,79.9 28.9,77.7 	"/>
	<circle class="st2" cx="91.1" cy="79.1" r="2.5"/>
</g>
</svg>
