<?xml version="1.0" encoding="utf-8"?>
<!-- Generator: Adobe Illustrator 25.2.3, SVG Export Plug-In . SVG Version: 6.00 Build 0)  -->
<svg version="1.1" id="Ebene_1" xmlns="http://www.w3.org/2000/svg" xmlns:xlink="http://www.w3.org/1999/xlink" x="0px" y="0px"
	 viewBox="0 0 125 125" style="enable-background:new 0 0 125 125;" xml:space="preserve">
<style type="text/css">
	.st0{fill:#E2504D;}
	.st1{fill:#AC483D;}
	.st2{fill:#F9B233;}
	.st3{fill:#FFFFFF;}
	.st4{fill:#C7D8E2;}
	.st5{fill:#C9C7CF;}
	.st6{fill:#95B73D;}
	.st7{fill:#3B3647;}
	.st8{fill:#565066;}
</style>
<g id="surfer_van">
	<g id="surfer_bus">
		<circle class="st0" cx="62.5" cy="62.5" r="62.5"/>
		<path class="st1" d="M125,62.5c0-4.7-0.5-9.2-1.5-13.6L97.6,23l-10.7,9.6l-55.3,1.1l3.5,3.5l-4.8,2.7l-3.6-3.6l-3.4,3.4l7.1,7.1
			L10.2,80l44.5,44.5c2.6,0.3,5.2,0.5,7.8,0.5C97,125,125,97,125,62.5z"/>
		<g>
			<g id="minivan">
				<rect x="17" y="58.1" class="st2" width="93" height="26"/>
				<path class="st3" d="M100,35.8l-76.7,0.1l-0.1,4.2h2l-6.2,18h91l0-12.3C110,40.3,105.5,35.8,100,35.8z"/>
				<polygon class="st4" points="32,56.1 21.7,56.1 27.2,40.1 32,40.1 				"/>
				<rect x="34" y="40.1" class="st4" width="18" height="16"/>
				<rect x="54" y="40.1" class="st4" width="37.3" height="16"/>
				<rect x="31.6" y="30.8" class="st5" width="67" height="3"/>
				<polygon class="st6" points="92.3,30.8 97.6,23 94.6,22.5 86.3,30.8 				"/>
				<rect x="10" y="61.4" class="st7" width="7" height="19"/>
			</g>
			<circle class="st7" cx="35.5" cy="84.1" r="12"/>
			<circle class="st7" cx="91.5" cy="84.1" r="12"/>
		</g>
	</g>
	<path class="st5" d="M30.5,89c-2.7-2.7-2.7-7.2,0-9.9c2.7-2.7,7.2-2.7,9.9,0L30.5,89z"/>
	<path class="st8" d="M40.5,79.1c2.7,2.7,2.7,7.2,0,9.9c-2.7,2.7-7.2,2.7-9.9,0L40.5,79.1z"/>
	<path class="st5" d="M86.5,89c-2.7-2.7-2.7-7.2,0-9.9c2.7-2.7,7.2-2.7,9.9,0L86.5,89z"/>
	<path class="st8" d="M96.5,79.1c2.7,2.7,2.7,7.2,0,9.9s-7.2,2.7-9.9,0L96.5,79.1z"/>
</g>
</svg>
