<?xml version="1.0" encoding="utf-8"?>
<!-- Generator: Adobe Illustrator 25.2.3, SVG Export Plug-In . SVG Version: 6.00 Build 0)  -->
<svg version="1.1" id="Ebene_1" xmlns="http://www.w3.org/2000/svg" xmlns:xlink="http://www.w3.org/1999/xlink" x="0px" y="0px"
	 viewBox="0 0 125 125" style="enable-background:new 0 0 125 125;" xml:space="preserve">
<style type="text/css">
	.st0{fill:#78B7E5;}
	.st1{fill:#5E9AD3;}
	.st2{fill:#D18B39;}
	.st3{fill:#F9B233;}
	.st4{fill:#95B73D;}
	.st5{fill:#6E9631;}
	.st6{fill:#AC483D;}
</style>
<g id="island">
	<circle class="st0" cx="62.5" cy="62.5" r="62.5"/>
	<path class="st1" d="M124.9,64.9L88.4,28.3l-1-0.2L76.8,17.5l-6.4,3.1l-15.6,13L39,29.3l-10.1,1.3l5.8,5.8L23.8,44l8.6,8.6l-1.9,3
		l27.6,27.6L31.7,99.1l25.7,25.7c1.7,0.1,3.4,0.2,5.1,0.2C96.2,125,123.7,98.3,124.9,64.9z"/>
	<path class="st2" d="M63.7,81c-2.9,2.9-5.8,5.8-8.7,8.7C40.8,74,42,50.2,57.3,36.5c1.3,1.3,2.7,2.7,4,4
		C50.7,52.7,51.9,70.8,63.7,81z"/>
	<g>
		<path class="st3" d="M67.2,80.1c-14.8,0-27.8,7.5-35.5,19h71C95,87.6,82,80.1,67.2,80.1z"/>
	</g>
	<path class="st4" d="M76.1,40.5c-7.3-4.5-16-3.9-18.3-3.7c0,0,0,0,0,0s-10.5-0.8-18.5,5c-5.5,4-8.8,13.9-8.8,13.9
		c2.2-2.6,6.5-7,12.3-10.1c4.9-2.6,9.9-3.7,13.3-4.2l3.1,0c3.5,0.2,8.6,1,13.6,3.2c9.1,4,14.9,11.2,14.9,11.2
		C87.8,55.6,84.5,45.7,76.1,40.5z"/>
	<path class="st5" d="M76,32.5c-6.9-0.9-13.3,1.7-16.5,3.3c0.9-1.9,2-3.9,3.4-5.9c5.7-8.1,13.9-12.4,13.9-12.4
		c-0.1,0-10.5,1.2-17.3,8.4c-2.6,2.8-4.3,6-5.3,9c-3.6-1.2-8.9-2.3-14.3-1.1c-9.7,2-16.2,10.3-16.2,10.3c0.1,0,8-4.8,17.8-5.4
		c5.5-0.3,10.5,0.7,13.9,1.7c0,0,5.8,0.2,5.6-0.1c3.3-1.2,8.2-2.6,13.7-2.7c9.9-0.1,18.2,4,18.2,4C93,41.6,85.9,33.7,76,32.5z"/>
	<path class="st4" d="M69.2,27.7C64,29.6,60,33.2,57.5,36c-2.7-2.7-7-6-12.4-7.4c-6.5-1.7-16.3,2-16.3,2c3.4,0.1,9.5,0.6,15.6,3.1
		c4.2,1.7,7.6,4.2,10.1,6.3c0,0,0,0.1,0,0.1s4.1,1.2,4.7,1.3c2.4-2.6,6.2-6,11.1-8.5c8.8-4.5,18-4.5,18.1-4.5
		C88.4,28.3,78.6,24.5,69.2,27.7z"/>
	<path class="st6" d="M59.6,38.1c0-1.9-1.6-3.5-3.5-3.5s-3.5,1.6-3.5,3.5c-1.9,0-3.5,1.6-3.5,3.5c0,1.9,1.6,3.5,3.5,3.5
		s3.5-1.6,3.5-3.5c0,1.9,1.6,3.5,3.5,3.5s3.5-1.6,3.5-3.5C63.1,39.7,61.6,38.1,59.6,38.1z"/>
</g>
</svg>
