<?xml version="1.0" encoding="utf-8"?>
<!-- Generator: Adobe Illustrator 25.2.3, SVG Export Plug-In . SVG Version: 6.00 Build 0)  -->
<svg version="1.1" id="Ebene_1" xmlns="http://www.w3.org/2000/svg" xmlns:xlink="http://www.w3.org/1999/xlink" x="0px" y="0px"
	 viewBox="0 0 15.5 10.5" style="enable-background:new 0 0 15.5 10.5;" xml:space="preserve">
<style type="text/css">
	.st0{fill:#E20613;}
</style>
<path class="st0" d="M15,0H0.5C0.2,0,0,0.2,0,0.5V10c0,0.3,0.2,0.5,0.5,0.5H15c0.3,0,0.5-0.2,0.5-0.5V0.5C15.5,0.2,15.2,0,15,0z
	 M14.6,1.4v7.7l-3.9-3.9L14.6,1.4z M7.6,7L1.4,0.8h12.7L7.8,7C7.8,7.1,7.7,7.1,7.6,7z M5.3,5.8L7.4,8c0.1,0.1,0.2,0.1,0.3,0.1
	c0.1,0,0.2,0,0.3-0.1l2.2-2.2l3.8,3.8H1.4L5.3,5.8z M4.7,5.2L0.8,9.1V1.4L4.7,5.2z"/>
</svg>
