<?xml version="1.0" encoding="utf-8"?>
<!-- Generator: Adobe Illustrator 25.2.3, SVG Export Plug-In . SVG Version: 6.00 Build 0)  -->
<svg version="1.1" id="Ebene_1" xmlns="http://www.w3.org/2000/svg" xmlns:xlink="http://www.w3.org/1999/xlink" x="0px" y="0px"
	 viewBox="0 0 14.1 15" style="enable-background:new 0 0 14.1 15;" xml:space="preserve">
<style type="text/css">
	.st0{fill:#E20613;}
</style>
<g>
	<path class="st0" d="M10.4,15c-0.5,0-1.1-0.1-1.7-0.3c-1.2-0.4-2.3-1.1-3.2-1.7c-0.8-0.6-1.6-1.3-2.3-2.2c-0.8-0.9-1.4-1.7-1.8-2.6
		c-0.5-0.9-1-2.2-1.3-3.4c-0.3-1.4,0-2.6,0.7-3.6c0.3-0.4,0.7-0.7,1.1-0.9C2.3,0.2,2.8,0,3.4,0c0.3,0,0.8,0.1,1.1,0.6
		C4.6,1.1,4.9,1.6,5.1,2c0.2,0.3,0.3,0.7,0.5,1c0.1,0.2,0.2,0.4,0.2,0.6c0.1,0.4,0,0.8-0.3,1C5,5,4.5,5.4,4.1,5.8c0,0-0.1,0-0.1,0.1
		c0,0,0,0.1,0,0.1c0.4,1.1,1,2,1.6,2.7l0,0c0.7,0.8,1.5,1.4,2.5,2c0.1,0,0.1,0.1,0.1,0.1c0,0,0.1,0,0.1-0.1c0.4-0.4,0.8-0.8,1.3-1.2
		c0.3-0.3,0.7-0.4,1.1-0.2c0.2,0.1,0.4,0.2,0.6,0.3c0.3,0.2,0.6,0.4,0.9,0.6c0.4,0.3,0.8,0.6,1.3,0.8c0.5,0.3,0.6,0.8,0.5,1.1
		c-0.1,0.6-0.3,1-0.5,1.4c-0.3,0.4-0.6,0.7-1.1,1C11.8,14.9,11.1,15,10.4,15z M3.5,0.9C3.5,0.9,3.5,0.9,3.5,0.9C3,0.9,2.6,1,2.3,1.1
		C2,1.3,1.7,1.5,1.5,1.8C0.2,3.5,1.1,5.9,2.1,7.9c0.4,0.8,1,1.6,1.7,2.4l0,0c0.7,0.8,1.4,1.5,2.2,2c1.9,1.3,4.1,2.5,6,1.4
		c0.3-0.2,0.6-0.4,0.8-0.7c0.2-0.3,0.3-0.6,0.4-1.1c0-0.1,0-0.1-0.1-0.2c-0.4-0.3-0.9-0.6-1.3-0.8c-0.3-0.2-0.6-0.4-0.9-0.6
		c-0.2-0.1-0.3-0.2-0.5-0.3c0,0,0,0,0,0c0,0,0,0-0.1,0.1c-0.4,0.4-0.9,0.8-1.3,1.2c-0.1,0.1-0.3,0.2-0.5,0.3
		c-0.3,0.1-0.6-0.1-0.7-0.2c-1.1-0.6-2-1.3-2.7-2.2l0,0c-0.7-0.8-1.3-1.8-1.8-3C3.2,6.1,3.1,5.8,3.2,5.5c0.1-0.2,0.2-0.4,0.3-0.4
		C4,4.7,4.4,4.3,4.9,4c0,0,0.1,0,0.1-0.1c0,0,0,0,0,0C4.9,3.7,4.8,3.5,4.8,3.4C4.6,3,4.4,2.7,4.3,2.4C4.1,1.9,3.9,1.5,3.6,1
		C3.6,0.9,3.6,0.9,3.5,0.9z M8.3,10.8L8.3,10.8L8.3,10.8z M4,5.8L4,5.8L4,5.8z M5,3.9L5,3.9L5,3.9z"/>
</g>
</svg>
