<?xml version="1.0" encoding="utf-8"?>
<!-- Generator: Adobe Illustrator 25.2.3, SVG Export Plug-In . SVG Version: 6.00 Build 0)  -->
<svg version="1.1" id="Ebene_1" xmlns="http://www.w3.org/2000/svg" xmlns:xlink="http://www.w3.org/1999/xlink" x="0px" y="0px"
	 viewBox="0 0 20.1 12.9" style="enable-background:new 0 0 20.1 12.9;" xml:space="preserve">
<style type="text/css">
	.st0{fill:none;stroke:#808080;stroke-miterlimit:10;}
</style>
<g id="People">
	<circle class="st0" cx="10.1" cy="3.8" r="3.3"/>
	<path class="st0" d="M12.2,6.3c1.9,1,3.2,3.3,3.2,6"/>
	<path class="st0" d="M4.8,12.4c0-2.7,1.3-5,3.2-6"/>
	<path class="st0" d="M16.1,8.2c1.1-0.3,2-1.3,2-2.5c0-1.4-1.2-2.6-2.7-2.6c-0.1,0-0.2,0-0.4,0"/>
	<path class="st0" d="M19.6,12.4c0-2.1-1-3.9-2.5-4.7"/>
	<path class="st0" d="M4.1,8.2c-1.1-0.3-2-1.3-2-2.5c0-1.4,1.2-2.6,2.7-2.6c0.1,0,0.2,0,0.4,0"/>
	<path class="st0" d="M3,7.7c-1.5,0.8-2.5,2.6-2.5,4.7"/>
	<line class="st0" x1="3.8" y1="12.4" x2="11.1" y2="12.4"/>
	<line class="st0" x1="13.7" y1="12.4" x2="17.7" y2="12.4"/>
</g>
</svg>
