<?xml version="1.0" encoding="utf-8"?>
<!-- Generator: Adobe Illustrator 25.2.3, SVG Export Plug-In . SVG Version: 6.00 Build 0)  -->
<svg version="1.1" id="Ebene_1" xmlns="http://www.w3.org/2000/svg" xmlns:xlink="http://www.w3.org/1999/xlink" x="0px" y="0px"
	 viewBox="0 0 37.5 37.5" style="enable-background:new 0 0 37.5 37.5;" xml:space="preserve">
<style type="text/css">
	.st0{fill:#E20613;}
</style>
<g>
	<path class="st0" d="M8.9,0c0,0.1-0.1,0.1-0.1,0C8.8,0,8.9,0,8.9,0z"/>
	<path class="st0" d="M28.7,0c0,0.1-0.1,0.1-0.1,0C28.6,0,28.7,0,28.7,0z"/>
	<path class="st0" d="M37.4,7.3c-0.3-1.1-0.7-2.2-1.4-3.2c-1.1-1.6-2.6-2.8-4.4-3.6C30.8,0.2,29.9,0,29,0c-0.1,0-0.2,0-0.3,0
		c0,0-0.1,0-0.1,0C22,0,15.5,0,8.9,0c0,0-0.1,0-0.1,0C8.7,0,8.5,0,8.4,0C8,0.1,7.6,0,7.2,0.1C5.3,0.6,3.8,1.5,2.5,2.9
		C0.9,4.6,0,6.6,0,9c0,6.5,0,13,0,19.5c0,0.6,0,1.1,0.2,1.7C0.6,32,1.5,33.6,2.9,35c1.7,1.6,3.7,2.5,6.1,2.5c6.5,0,13,0,19.5,0
		c0.6,0,1.1,0,1.7-0.2c1.1-0.3,2.2-0.7,3.2-1.4c1.6-1.1,2.8-2.6,3.6-4.4c0.3-0.8,0.5-1.6,0.6-2.4c0-6.9,0-13.8,0-20.7
		C37.4,8,37.4,7.6,37.4,7.3z M34.4,28c0,3.1-1.9,5.5-4.9,6.2c-0.5,0.1-1,0.1-1.5,0.1c-6.1,0-12.2,0-18.3,0c-2.9,0-5.2-1.6-6.1-4.2
		c-0.3-0.7-0.3-1.5-0.3-2.2c0-3.1,0-6.1,0-9.2c0,0,0,0,0,0c0-3.2,0-6.5,0-9.7c0-2.8,2.4-5.4,5.2-5.8c0.4-0.1,0.8-0.1,1.2-0.1
		c6.1,0,12.2,0,18.3,0c2.7,0,4.7,1.2,5.9,3.7c0.4,0.8,0.6,1.8,0.6,2.7C34.4,15.6,34.4,21.8,34.4,28z"/>
	<path class="st0" d="M28.9,10.9c-1.3,0-2.3-1.1-2.3-2.4c0-1.3,1.1-2.3,2.3-2.3c1.3,0,2.3,1,2.3,2.3C31.3,9.8,30.2,10.9,28.9,10.9z"
		/>
	<path class="st0" d="M18.7,9.3c-5.2,0.1-9.3,4.3-9.3,9.4c0,5.2,4.3,9.4,9.4,9.3c5.2,0,9.4-4.3,9.3-9.4C28.1,13.5,23.8,9.3,18.7,9.3
		z M18.7,24.9c-3.5,0-6.3-2.8-6.2-6.3c0-3.5,2.8-6.2,6.3-6.2c3.5,0,6.3,2.8,6.2,6.3C25,22.2,22.2,25,18.7,24.9z"/>
</g>
</svg>
