<?xml version="1.0" encoding="utf-8"?>
<!-- Generator: Adobe Illustrator 25.2.3, SVG Export Plug-In . SVG Version: 6.00 Build 0)  -->
<svg version="1.1" id="Ebene_1" xmlns="http://www.w3.org/2000/svg" xmlns:xlink="http://www.w3.org/1999/xlink" x="0px" y="0px"
	 viewBox="0 0 125 125" style="enable-background:new 0 0 125 125;" xml:space="preserve">
<style type="text/css">
	.st0{fill:#565066;}
	.st1{fill:#3B3647;}
	.st2{fill:#D18B39;}
	.st3{fill:#F9B233;}
	.st4{fill:#6E9631;}
	.st5{fill:#E2504D;}
	.st6{fill:#FFFFFF;}
	.st7{fill:#95B73D;}
</style>
<g id="map">
	<circle class="st0" cx="62.5" cy="62.5" r="62.5"/>
	<path class="st1" d="M125,62.5c0-5.2-0.6-10.2-1.8-15l-22.7-22.7l-72,74.9l24.6,24.6c3.1,0.5,6.2,0.7,9.4,0.7
		C97,125,125,97,125,62.5z"/>
	<polygon class="st2" points="52.4,89.7 76.4,99.7 76.4,34.7 52.4,24.7 	"/>
	<polygon class="st3" points="100.4,89.7 76.4,99.7 76.4,34.7 100.4,24.7 	"/>
	<polygon class="st3" points="52.4,89.7 28.4,99.7 28.4,34.7 52.4,24.7 	"/>
	<polygon class="st2" points="85.4,75.5 85.4,31 83.4,31.8 83.4,44.8 76.4,47.7 76.4,50.7 83.4,47.8 83.4,76.4 76.4,79.3 76.4,82.3 
		83.4,79.4 83.4,96.8 85.4,96 85.4,78.5 100.4,72.3 100.4,69.3 	"/>
	<polygon class="st2" points="52.4,72.3 28.4,94.7 28.4,91.7 52.4,69.3 	"/>
	<g>
		<polygon class="st3" points="76.4,50.7 76.4,47.7 63,42.1 63,29.1 61,28.2 61,72.8 52.4,69.3 52.4,72.3 61,75.8 61,93.2 63,94.1 
			63,76.7 76.4,82.3 76.4,79.3 63,73.7 63,45.1 		"/>
		<polygon class="st3" points="61,54 52.4,50.5 52.4,53.5 61,57 		"/>
	</g>
	<path class="st2" d="M52.4,50.5l-8.9,3.7c-0.8-3.5-3.1-5.8-6.3-6.5V31l-2,0.8v15.6c-1.8,0-3.7,0.3-5.7,1.2
		c-0.4,0.2-0.7,0.3-1.1,0.5v28.5c0.4-0.1,0.7-0.2,1.1-0.4c7.9-3.3,14.2-12.2,14.3-20.1l8.6-3.6V50.5z"/>
	<path class="st4" d="M28.4,51.3c0.6-0.4,1.2-0.7,1.8-0.9c1.6-0.7,3.2-1,4.7-1c4.2,0,6.8,2.9,6.8,7.6c0,7.2-6,15.6-13.4,18.5V51.3z"
		/>
	<path class="st5" d="M50.8,38.4c0,2.8-5,11-5,11c0,0-5-8.2-5-11c0-2.8,2.2-5,5-5C48.6,33.4,50.8,35.6,50.8,38.4z"/>
	<circle class="st6" cx="45.8" cy="38.4" r="2"/>
	<path class="st7" d="M97.9,60.7c0,2.8-5,11-5,11c0,0-5-8.2-5-11c0-2.8,2.2-5,5-5C95.7,55.7,97.9,57.9,97.9,60.7z"/>
	<circle class="st6" cx="92.9" cy="60.7" r="2"/>
</g>
</svg>
