<?xml version="1.0" encoding="utf-8"?>
<!-- Generator: Adobe Illustrator 25.2.3, SVG Export Plug-In . SVG Version: 6.00 Build 0)  -->
<svg version="1.1" id="Ebene_1" xmlns="http://www.w3.org/2000/svg" xmlns:xlink="http://www.w3.org/1999/xlink" x="0px" y="0px"
	 viewBox="0 0 125 125" style="enable-background:new 0 0 125 125;" xml:space="preserve">
<style type="text/css">
	.st0{fill:#95B73D;}
	.st1{fill:#6E9631;}
	.st2{fill:#F9B233;}
	.st3{fill:#565066;}
</style>
<g id="bikini_swim_suit">
	<circle class="st0" cx="62.5" cy="62.5" r="62.5"/>
	<path class="st1" d="M66.8,124.8c31.4-2.1,56.4-27.4,58.1-58.9L73,14.1L62.3,18l-7.8-4.1l-2,4.8l3.3,3.3l-8,7.6l-0.8,14.1
		L32.5,70.5L52,89.9l-19.4,0.7L66.8,124.8z"/>
	<g>
		<polygon class="st2" points="61,113.1 64,113.1 77,90.6 74,90.6 51,90.6 48,90.6 		"/>
		<rect x="32.5" y="87.6" class="st3" width="60" height="3"/>
		<path class="st3" d="M92.5,70.5v-3h-13v-31c0-7-4.3-13.1-10.5-15.7c0.1,0,0.3-0.1,0.4-0.1c3.1-1.3,4.9-3.8,4.1-5.8
			c-0.8-1.9-3.9-2.4-7-1.2c-2.1,0.9-3.6,2.3-4.1,3.8c-0.5-1.4-2-2.9-4.1-3.8c-3.1-1.3-6.2-0.7-7,1.2c-0.8,1.9,1,4.5,4.1,5.8
			c0.1,0.1,0.3,0.1,0.4,0.2c-6.1,2.6-10.4,8.7-10.4,15.7l0,31h-13v3h13h34l0,0H92.5z M67.7,16.5c1.3-0.6,2.4-0.5,2.9-0.4
			c-0.3,0.5-1,1.2-2.3,1.8c-1.3,0.6-2.4,0.5-2.9,0.4C65.7,17.8,66.4,17.1,67.7,16.5z M56.7,17.9c-1.3-0.6-2-1.3-2.3-1.8
			c0.5-0.1,1.6-0.2,2.9,0.4c1.3,0.6,2,1.3,2.3,1.8C59.1,18.4,58.1,18.4,56.7,17.9z M58.8,23v13h3V22.5c0.2,0,0.5,0,0.8,0
			c0.3,0,0.5,0,0.7,0v12h3V23c5.9,1.6,10.3,7.1,10.3,13.5v31l-28,0v-31C48.5,30.1,52.9,24.7,58.8,23z"/>
		<polygon class="st2" points="48.5,45 45.5,45 32.5,67.5 35.5,67.5 58.5,67.5 61.5,67.5 		"/>
		<polygon class="st2" points="79.6,45 76.6,45 63.6,67.5 66.6,67.5 89.5,67.5 92.5,67.5 		"/>
	</g>
</g>
</svg>
