<?xml version="1.0" encoding="utf-8"?>
<!-- Generator: Adobe Illustrator 25.2.3, SVG Export Plug-In . SVG Version: 6.00 Build 0)  -->
<svg version="1.1" id="Ebene_1" xmlns="http://www.w3.org/2000/svg" xmlns:xlink="http://www.w3.org/1999/xlink" x="0px" y="0px"
	 viewBox="0 0 125 125" style="enable-background:new 0 0 125 125;" xml:space="preserve">
<style type="text/css">
	.st0{fill:#78B7E5;}
	.st1{fill:#5E9AD3;}
	.st2{fill:#F9B233;}
	.st3{fill:#D18B39;}
	.st4{fill:#FFFFFF;}
	.st5{fill:#AC483D;}
	.st6{fill:#6E9631;}
	.st7{fill:#95B73D;}
</style>
<g id="coconut_drink_1_">
	<circle class="st0" cx="62.5" cy="62.5" r="62.5"/>
	<path class="st1" d="M70.5,55.3L54.8,39.7l-24.4-5.5l36.5,36.5L48.7,95.1l28.2,28.2c25.5-6,44.9-27.5,47.8-54L90.8,35.4L70.5,55.3z
		"/>
	<g>
		<path class="st2" d="M32,30.5l22.8,9.2l5.4,12.9l0.6,1.5c-1.5-0.1-3-0.2-4.4-0.3L56,53l-4.2-10.1l-21.4-8.7L32,30.5z"/>
	</g>
	<path class="st3" d="M91.5,36.2L71.4,56.3c-0.2,0.2-0.5,0.3-0.7,0.3c-0.3,0-0.5-0.1-0.7-0.3c-0.4-0.4-0.4-1,0-1.4l20.1-20.1
		L91.5,36.2z"/>
	<g>
		<g>
			<path class="st4" d="M63.5,53H41c0,0,1.8,3.5,2.2,3.7C58.5,62.5,63.5,53,63.5,53z"/>
			<polygon class="st4" points="78.1,61.3 85.9,53 63.5,53 			"/>
			<g>
				<g>
					<path class="st3" d="M63.5,53l-5.4,0.8L54.6,53l-7.1,2.4L41,53c-1.5,4.3-2.5,9.8-2.5,15c0,18.6,11.2,33.7,25,33.7L63.5,53z"/>
					<path class="st5" d="M63.5,101.7c13.8,0,25-15.1,25-33.7c0-5.1-1.1-10.6-2.6-15l-6.4,1.9L76.4,53l-6.2,2l-5.1-2h-1.6
						L63.5,101.7z"/>
				</g>
			</g>
		</g>
	</g>
	<polygon class="st6" points="82,44.3 74,35 89.8,36.5 	"/>
	<polygon class="st7" points="74,35 69.2,27.3 89.8,36.5 	"/>
	<polygon class="st7" points="82,44.3 91.3,52.2 89.8,36.5 	"/>
	<polygon class="st6" points="91.3,52.2 98.9,57 89.8,36.5 	"/>
</g>
</svg>
