<?xml version="1.0" encoding="utf-8"?>
<!-- Generator: Adobe Illustrator 25.2.3, SVG Export Plug-In . SVG Version: 6.00 Build 0)  -->
<svg version="1.1" id="Ebene_1" xmlns="http://www.w3.org/2000/svg" xmlns:xlink="http://www.w3.org/1999/xlink" x="0px" y="0px"
	 viewBox="0 0 18.8 20.5" style="enable-background:new 0 0 18.8 20.5;" xml:space="preserve">
<style type="text/css">
	.st0{fill:#808080;}
</style>
<path class="st0" d="M18.8,19.7c-0.2-1.9-0.9-3.6-2.1-5.1c-1.2-1.4-2.7-2.5-4.5-3c1-0.5,1.8-1.3,2.4-2.2c0.6-1,0.9-2.1,0.9-3.3
	c0-3.4-2.8-6.1-6.1-6.1C6,0,3.3,2.8,3.3,6.1c0,1.2,0.3,2.3,0.9,3.3c0.6,0.9,1.4,1.7,2.4,2.2c-1.8,0.5-3.3,1.6-4.5,3
	c-1.2,1.5-1.9,3.2-2.1,5.1c0,0.2,0,0.4,0.2,0.5c0.1,0.1,0.3,0.2,0.5,0.2h0l0,0h17.4v0c0.2,0,0.4-0.1,0.5-0.2
	C18.8,20.1,18.9,19.9,18.8,19.7z M6.1,9.5C5.6,9.1,5.3,8.5,5.1,8C4.8,7.4,4.7,6.8,4.7,6.1c0-0.6,0.1-1.3,0.4-1.8
	c0.2-0.6,0.6-1.1,1-1.5C6.5,2.4,7,2,7.6,1.8c0.6-0.2,1.2-0.4,1.8-0.4s1.3,0.1,1.8,0.4c0.6,0.2,1.1,0.6,1.5,1c0.4,0.4,0.8,0.9,1,1.5
	c0.2,0.6,0.4,1.2,0.4,1.8c0,0.6-0.1,1.3-0.4,1.8c-0.2,0.6-0.6,1.1-1,1.5c-0.4,0.4-0.9,0.8-1.5,1c-0.6,0.2-1.2,0.4-1.8,0.4
	s-1.3-0.1-1.8-0.4C7,10.3,6.5,9.9,6.1,9.5z M2.7,16.1c0.3-0.4,0.6-0.8,1-1.2c0.4-0.4,0.8-0.7,1.2-1c0.4-0.3,0.9-0.5,1.4-0.7
	c1-0.4,2-0.6,3.1-0.6c1.1,0,2.1,0.2,3.1,0.6c0.5,0.2,0.9,0.5,1.4,0.7c0.4,0.3,0.8,0.6,1.2,1c0.4,0.4,0.7,0.8,1,1.2
	c0.3,0.4,0.5,0.9,0.7,1.4c0.2,0.5,0.4,1,0.5,1.6H1.5C1.6,18.5,1.8,18,2,17.5C2.2,17,2.5,16.6,2.7,16.1z"/>
</svg>
