<?xml version="1.0" encoding="utf-8"?>
<!-- Generator: Adobe Illustrator 25.2.3, SVG Export Plug-In . SVG Version: 6.00 Build 0)  -->
<svg version="1.1" id="Ebene_1" xmlns="http://www.w3.org/2000/svg" xmlns:xlink="http://www.w3.org/1999/xlink" x="0px" y="0px"
	 viewBox="0 0 24.1 24.1" style="enable-background:new 0 0 24.1 24.1;" xml:space="preserve">
<style type="text/css">
	.st0{fill:none;stroke:#000000;stroke-linecap:round;stroke-linejoin:round;stroke-miterlimit:10;}
	.st1{fill:none;stroke:#FFFFFF;stroke-linecap:round;stroke-linejoin:round;stroke-miterlimit:10;}
</style>
<g>
	<g>
		<path class="st0" d="M21.6,12.7H2.5c-1.1,0-2-0.9-2-2v0c0-1.1,0.9-2,2-2h19.2c1.1,0,2,0.9,2,2v0C23.6,11.8,22.7,12.7,21.6,12.7z"
			/>
		<line class="st1" x1="10.8" y1="0.5" x2="6.4" y2="10.8"/>
		<line class="st1" x1="17.8" y1="10.8" x2="13.4" y2="0.5"/>
		<g>
			<path class="st0" d="M19,23.6h-14c-0.5,0-0.9-0.3-1-0.8L2.4,12.7h19.3L20,22.8C19.9,23.2,19.5,23.6,19,23.6z"/>
			<g>
				<line class="st0" x1="10.8" y1="0.5" x2="6.4" y2="10.8"/>
				<line class="st0" x1="17.8" y1="10.8" x2="13.4" y2="0.5"/>
			</g>
			<line class="st0" x1="5.6" y1="10.8" x2="7.2" y2="10.8"/>
			<line class="st0" x1="17" y1="10.8" x2="18.6" y2="10.8"/>
		</g>
	</g>
</g>
</svg>
