<?xml version="1.0" encoding="utf-8"?>
<!-- Generator: Adobe Illustrator 25.2.3, SVG Export Plug-In . SVG Version: 6.00 Build 0)  -->
<svg version="1.1" id="Ebene_1" xmlns="http://www.w3.org/2000/svg" xmlns:xlink="http://www.w3.org/1999/xlink" x="0px" y="0px"
	 viewBox="0 0 6.6 12.2" style="enable-background:new 0 0 6.6 12.2;" xml:space="preserve">
<style type="text/css">
	.st0{fill:#FFFFFF;}
</style>
<g>
	<path class="st0" d="M4.4,6.9c0,0.1,0,0.1,0,0.2c0,1.6,0,3.1,0,4.7c0,0.4,0,0.5-0.5,0.5c-0.6,0-1.1,0-1.7,0c-0.3,0-0.4-0.1-0.4-0.4
		c0-1.6,0-3.2,0-4.7c0-0.1,0-0.1,0-0.2c-0.1,0-0.1,0-0.2,0c-0.4,0-0.9,0-1.3,0C0.1,6.9,0,6.8,0,6.5C0,6,0,5.4,0,4.8
		c0-0.3,0.1-0.4,0.4-0.4c0.4,0,0.9,0,1.3,0c0.1,0,0.1,0,0.2,0c0-0.1,0-0.1,0-0.2c0-0.6,0-1.1,0-1.7C2,1.1,3.1,0.1,4.5,0
		c0.6,0,1.2,0,1.8,0c0.2,0,0.3,0.1,0.3,0.3c0,0.6,0,1.2,0,1.8c0,0.2-0.1,0.3-0.3,0.3c-0.4,0-0.8,0-1.2,0C4.6,2.4,4.4,2.6,4.4,3
		c0,0.4,0,0.9,0,1.3c0.1,0,0.1,0,0.2,0c0.5,0,1,0,1.6,0c0.3,0,0.4,0.1,0.4,0.4c0,0.6,0,1.2,0,1.8c0,0.3-0.1,0.3-0.3,0.3
		c-0.5,0-1.1,0-1.6,0C4.6,6.9,4.5,6.9,4.4,6.9z"/>
</g>
</svg>
