<?xml version="1.0" encoding="utf-8"?>
<!-- Generator: Adobe Illustrator 25.2.3, SVG Export Plug-In . SVG Version: 6.00 Build 0)  -->
<svg version="1.1" id="Ebene_1" xmlns="http://www.w3.org/2000/svg" xmlns:xlink="http://www.w3.org/1999/xlink" x="0px" y="0px"
	 viewBox="0 0 11.1 11.1" style="enable-background:new 0 0 11.1 11.1;" xml:space="preserve">
<style type="text/css">
	.st0{fill:#FFFFFF;}
</style>
<g>
	<path class="st0" d="M8.5,0C8.5,0,8.5,0,8.5,0C8.5,0,8.5,0,8.5,0z"/>
	<path class="st0" d="M11,2.2c-0.1-0.3-0.2-0.7-0.4-0.9c-0.3-0.5-0.8-0.8-1.3-1.1C9.1,0.1,8.8,0,8.6,0c0,0-0.1,0-0.1,0c0,0,0,0,0,0
		C6.5,0,4.6,0,2.6,0c0,0,0,0,0,0c0,0-0.1,0-0.1,0C2.4,0,2.2,0,2.1,0c-0.5,0.1-1,0.4-1.4,0.8C0.3,1.4,0,2,0,2.7c0,1.9,0,3.8,0,5.8
		c0,0.2,0,0.3,0,0.5c0.1,0.6,0.4,1,0.8,1.4c0.5,0.5,1.1,0.7,1.8,0.7c1.9,0,3.8,0,5.8,0c0.2,0,0.3,0,0.5,0c0.3-0.1,0.7-0.2,0.9-0.4
		c0.5-0.3,0.8-0.8,1.1-1.3c0.1-0.2,0.1-0.5,0.2-0.7c0-2,0-4.1,0-6.1C11.1,2.4,11.1,2.3,11,2.2z M10.2,8.3c0,0.9-0.6,1.6-1.5,1.8
		c-0.1,0-0.3,0-0.5,0c-1.8,0-3.6,0-5.4,0C2,10.1,1.3,9.7,1,8.9C1,8.7,0.9,8.5,0.9,8.2c0-0.9,0-1.8,0-2.7c0,0,0,0,0,0
		c0-1,0-1.9,0-2.9c0-0.8,0.7-1.6,1.5-1.7c0.1,0,0.2,0,0.4,0c1.8,0,3.6,0,5.4,0C9.1,0.9,9.6,1.3,10,2c0.1,0.2,0.2,0.5,0.2,0.8
		C10.2,4.6,10.2,6.4,10.2,8.3z"/>
	<path class="st0" d="M8.5,3.2c-0.4,0-0.7-0.3-0.7-0.7c0-0.4,0.3-0.7,0.7-0.7c0.4,0,0.7,0.3,0.7,0.7C9.2,2.9,8.9,3.2,8.5,3.2z"/>
	<path class="st0" d="M5.5,2.8C4,2.8,2.8,4,2.8,5.5c0,1.5,1.3,2.8,2.8,2.8c1.5,0,2.8-1.3,2.8-2.8C8.3,4,7,2.8,5.5,2.8z M5.5,7.4
		c-1,0-1.8-0.8-1.8-1.9c0-1,0.8-1.8,1.8-1.8c1,0,1.8,0.8,1.8,1.9C7.4,6.6,6.6,7.4,5.5,7.4z"/>
</g>
</svg>
