<?xml version="1.0" encoding="utf-8"?>
<!-- Generator: Adobe Illustrator 25.2.3, SVG Export Plug-In . SVG Version: 6.00 Build 0)  -->
<svg version="1.1" id="Ebene_1" xmlns="http://www.w3.org/2000/svg" xmlns:xlink="http://www.w3.org/1999/xlink" x="0px" y="0px"
	 viewBox="0 0 33.3 33.3" style="enable-background:new 0 0 33.3 33.3;" xml:space="preserve">
<style type="text/css">
	.st0{fill:#FFFFFF;}
	.st1{opacity:0.43;fill:none;stroke:#FFFFFF;stroke-width:1.5873;stroke-miterlimit:10;}
</style>
<g>
	<g>
		<path class="st0" d="M20.1,12.6c0,0.6,0,1.3-0.1,1.9c-0.4,1.8-2,2.9-3.8,2.7c-1.7-0.2-3-1.7-3-3.4c0-1-0.1-2,0.1-2.9
			c0.2-1.8,1.9-3,3.6-2.9c1.8,0.1,3.2,1.6,3.2,3.5C20.1,11.8,20.1,12.2,20.1,12.6C20.1,12.6,20.1,12.6,20.1,12.6z M18.9,12.6
			C18.9,12.6,19,12.6,18.9,12.6c0-0.5,0-0.9,0-1.4c-0.1-1.3-1.1-2.2-2.4-2.1c-1.3,0-2.2,1-2.2,2.3c0,0.8,0,1.6,0,2.4
			c0,1.3,1,2.2,2.3,2.3c1.2,0.1,2.3-0.9,2.4-2.1C19,13.5,18.9,13.1,18.9,12.6z"/>
		<path class="st0" d="M16.7,18.9c0.9,0,1.8,0,2.7,0.1c2.8,0.4,5,2.7,5.3,5.5c0,0.4-0.1,0.7-0.4,0.7c-0.3,0.1-0.6-0.2-0.7-0.6
			c-0.5-2.8-2.5-4.5-5.3-4.6c-1.3,0-2.6,0-3.9,0.1c-2.2,0.1-4.2,2-4.6,4.2c0,0.2-0.1,0.3-0.1,0.5c-0.1,0.3-0.3,0.5-0.6,0.5
			c-0.3,0-0.5-0.3-0.5-0.6c0.1-1.2,0.5-2.2,1.2-3.1c1.3-1.6,2.9-2.5,5-2.6C15.4,19,16,19,16.7,18.9C16.7,19,16.7,18.9,16.7,18.9z"/>
	</g>
	<circle class="st1" cx="16.6" cy="16.6" r="15.8"/>
</g>
</svg>
